<svg width="24" height="24" viewBox="0 0 24 24" fill="none" xmlns="http://www.w3.org/2000/svg">
<g clip-path="url(#clip0_992_3326)">
<path d="M5.33539 3.57495H7.18154V5.4211H5.33539V3.57495Z" fill="#2196F3"/>
<path d="M5.33539 7.2677H7.18154V9.11385H5.33539V7.2677Z" fill="#2196F3"/>
<path d="M5.33539 10.9603H7.18154V12.8065H5.33539V10.9603Z" fill="#2196F3"/>
<path d="M5.33539 14.6521H7.18154V16.4983H5.33539V14.6521Z" fill="#2196F3"/>
<path d="M9.02917 3.57495H10.8753V5.4211H9.02917V3.57495Z" fill="#2196F3"/>
<path d="M16.4125 10.9603H18.2586V12.8065H16.4125V10.9603Z" fill="#2196F3"/>
<path d="M16.4125 7.2677H18.2586V9.11385H16.4125V7.2677Z" fill="#2196F3"/>
<path d="M9.02917 7.2677H10.8753V9.11385H9.02917V7.2677Z" fill="#2196F3"/>
<path d="M16.4125 14.6521H18.2586V16.4983H16.4125V14.6521Z" fill="#2196F3"/>
<path d="M9.02917 10.9603H10.8753V12.8065H9.02917V10.9603Z" fill="#2196F3"/>
<path d="M16.4125 18.3447H18.2586V20.1909H16.4125V18.3447Z" fill="#2196F3"/>
<path d="M9.02917 14.6521H10.8753V16.4983H9.02917V14.6521Z" fill="#2196F3"/>
<path d="M22.362 21.5448H21.4595V4.39612C21.4595 4.15675 21.3644 3.92718 21.1951 3.75791C21.0258 3.58865 20.7963 3.49356 20.5569 3.49356H14.2389V0.785865C14.2389 0.54649 14.1438 0.316919 13.9746 0.147656C13.8053 -0.021608 13.5757 -0.116699 13.3364 -0.116699H2.5056C2.26623 -0.116699 2.03666 -0.021608 1.8674 0.147656C1.69813 0.316919 1.60304 0.54649 1.60304 0.785865V21.5448H0.700477C0.461102 21.5448 0.231531 21.6399 0.0622675 21.8092C-0.106996 21.9785 -0.202087 22.208 -0.202087 22.4474C-0.202087 22.6868 -0.106996 22.9163 0.0622675 23.0856C0.231531 23.2549 0.461102 23.35 0.700477 23.35H22.362C22.6014 23.35 22.831 23.2549 23.0002 23.0856C23.1695 22.9163 23.2646 22.6868 23.2646 22.4474C23.2646 22.208 23.1695 21.9785 23.0002 21.8092C22.831 21.6399 22.6014 21.5448 22.362 21.5448ZM3.40817 1.68843H12.4338V18.8371C12.4338 19.0765 12.5289 19.3061 12.6982 19.4754C12.8674 19.6446 13.097 19.7397 13.3364 19.7397C13.5757 19.7397 13.8053 19.6446 13.9746 19.4754C14.1438 19.3061 14.2389 19.0765 14.2389 18.8371V5.29869H19.6543V21.5448H10.6287V18.8371C10.6287 18.5978 10.5336 18.3682 10.3643 18.1989C10.1951 18.0297 9.96549 17.9346 9.72612 17.9346H6.11586C5.87649 17.9346 5.64692 18.0297 5.47765 18.1989C5.30839 18.3682 5.2133 18.5978 5.2133 18.8371V21.5448H3.40817V1.68843ZM8.82355 21.5448H7.01843V19.7397H8.82355V21.5448Z" fill="#2196F3"/>
</g>
<defs>
<clipPath id="clip0_992_3326">
<rect width="24" height="24" fill="white"/>
</clipPath>
</defs>
</svg>
