<svg width="48" height="18" viewBox="0 0 48 18" fill="none" xmlns="http://www.w3.org/2000/svg">
<path d="M1.47959 7.98663L47.0206 7.98663C47.5623 7.98663 48 8.44429 48 9.01077C48 9.57725 47.5623 10.0349 47.0206 10.0349L3.8454 10.0349L9.78899 16.2502C10.1716 16.6502 10.1716 17.2999 9.78899 17.7C9.40643 18.1 8.78513 18.1 8.40256 17.7L0.784848 9.73406C0.503278 9.43962 0.42064 9.00117 0.57367 8.61711C0.726697 8.23626 1.08478 7.98663 1.47959 7.98663Z" fill="#2196F3"/>
<path d="M9.10732 0.0100879C9.35829 0.0100879 9.60926 0.109302 9.79901 0.31093C10.1816 0.710984 10.1816 1.36067 9.79901 1.76073L2.17212 9.73621C1.78955 10.1363 1.16826 10.1363 0.785695 9.73621C0.403127 9.33616 0.403127 8.68647 0.785695 8.28641L8.41258 0.31093C8.6054 0.109302 8.85636 0.0100879 9.10732 0.0100879Z" fill="#2196F3"/>
</svg>
