<svg width="48" height="18" viewBox="0 0 48 18" fill="none" xmlns="http://www.w3.org/2000/svg">
<path d="M46.5204 10.0134H0.979377C0.437659 10.0134 0 9.55571 0 8.98923C0 8.42275 0.437659 7.96509 0.979377 7.96509H44.1546L38.211 1.74984C37.8284 1.34978 37.8284 0.700096 38.211 0.300041C38.5936 -0.100014 39.2149 -0.100014 39.5974 0.300041L47.2152 8.26593C47.4967 8.56037 47.5794 8.99883 47.4263 9.38288C47.2733 9.76373 46.9152 10.0134 46.5204 10.0134Z" fill="#2196F3"/>
<path d="M38.8927 17.9899C38.6417 17.9899 38.3907 17.8907 38.201 17.6891C37.8184 17.289 37.8184 16.6393 38.201 16.2393L45.8279 8.26379C46.2104 7.86373 46.8317 7.86373 47.2143 8.26379C47.5969 8.66384 47.5969 9.31353 47.2143 9.71359L39.5874 17.6891C39.3946 17.8907 39.1436 17.9899 38.8927 17.9899Z" fill="#2196F3"/>
</svg>
