<svg width="24" height="24" viewBox="0 0 24 24" fill="none" xmlns="http://www.w3.org/2000/svg">
<path d="M0.448598 10.1608C0.20086 10.1608 0 10.3616 0 10.6094V13.3907C0 13.6384 0.20086 13.8393 0.448598 13.8393C0.696336 13.8393 0.897196 13.6384 0.897196 13.3907V10.6094C0.897196 10.3616 0.696336 10.1608 0.448598 10.1608Z" fill="#2196F3"/>
<path d="M2.22503 7.89539C1.97729 7.89539 1.77643 8.09625 1.77643 8.34398V15.6561C1.77643 15.9039 1.97729 16.1047 2.22503 16.1047C2.47276 16.1047 2.67362 15.9039 2.67362 15.6561V8.34398C2.67362 8.09625 2.47276 7.89539 2.22503 7.89539Z" fill="#2196F3"/>
<path d="M4.00152 8.68042C3.75378 8.68042 3.55292 8.88128 3.55292 9.12902V14.8711C3.55292 15.1188 3.75378 15.3197 4.00152 15.3197C4.24925 15.3197 4.45011 15.1188 4.45011 14.8711V9.12902C4.45011 8.88128 4.24925 8.68042 4.00152 8.68042Z" fill="#2196F3"/>
<path d="M5.77794 10.1608C5.53021 10.1608 5.32935 10.3616 5.32935 10.6094V13.3907C5.32935 13.6384 5.53021 13.8393 5.77794 13.8393C6.02568 13.8393 6.22654 13.6384 6.22654 13.3907V10.6094C6.22654 10.3616 6.02568 10.1608 5.77794 10.1608Z" fill="#2196F3"/>
<path d="M7.55889 6.25342C7.31115 6.25342 7.11029 6.45428 7.11029 6.70202V17.2979C7.11029 17.5456 7.31115 17.7465 7.55889 17.7465C7.80663 17.7465 8.00749 17.5456 8.00749 17.2979V6.70202C8.00749 6.45428 7.80663 6.25342 7.55889 6.25342Z" fill="#2196F3"/>
<path d="M9.33532 8.44263C9.08758 8.44263 8.88672 8.64349 8.88672 8.89123V15.1088C8.88672 15.3565 9.08758 15.5574 9.33532 15.5574C9.58306 15.5574 9.78391 15.3565 9.78391 15.1088V8.89123C9.78391 8.64349 9.58306 8.44263 9.33532 8.44263Z" fill="#2196F3"/>
<path d="M11.1028 9.19177C10.855 9.19177 10.6542 9.39263 10.6542 9.64037V14.3596C10.6542 14.6074 10.855 14.8082 11.1028 14.8082C11.3505 14.8082 11.5514 14.6074 11.5514 14.3596V9.64037C11.5514 9.39263 11.3505 9.19177 11.1028 9.19177Z" fill="#2196F3"/>
<path d="M12.8972 10.1608C12.6495 10.1608 12.4486 10.3616 12.4486 10.6094V13.3907C12.4486 13.6384 12.6495 13.8393 12.8972 13.8393C13.1449 13.8393 13.3458 13.6384 13.3458 13.3907V10.6094C13.3458 10.3616 13.1449 10.1608 12.8972 10.1608Z" fill="#2196F3"/>
<path d="M14.6647 9.19177C14.4169 9.19177 14.2161 9.39263 14.2161 9.64037V14.3596C14.2161 14.6074 14.4169 14.8082 14.6647 14.8082C14.9124 14.8082 15.1133 14.6074 15.1133 14.3596V9.64037C15.1133 9.39263 14.9124 9.19177 14.6647 9.19177Z" fill="#2196F3"/>
<path d="M16.4412 8.44263C16.1934 8.44263 15.9926 8.64349 15.9926 8.89123V15.1088C15.9926 15.3565 16.1934 15.5574 16.4412 15.5574C16.6889 15.5574 16.8897 15.3565 16.8897 15.1088V8.89123C16.8897 8.64349 16.6889 8.44263 16.4412 8.44263Z" fill="#2196F3"/>
<path d="M18.222 6.25342C17.9743 6.25342 17.7734 6.45428 17.7734 6.70202V17.2979C17.7734 17.5456 17.9743 17.7465 18.222 17.7465C18.4698 17.7465 18.6706 17.5456 18.6706 17.2979V6.70202C18.6706 6.45428 18.4698 6.25342 18.222 6.25342Z" fill="#2196F3"/>
<path d="M19.9985 8.68042C19.7508 8.68042 19.5499 8.88128 19.5499 9.12902V14.8711C19.5499 15.1188 19.7508 15.3197 19.9985 15.3197C20.2463 15.3197 20.4471 15.1188 20.4471 14.8711V9.12902C20.4471 8.88128 20.2463 8.68042 19.9985 8.68042Z" fill="#2196F3"/>
<path d="M21.775 10.1608C21.5272 10.1608 21.3264 10.3616 21.3264 10.6094V13.3907C21.3264 13.6384 21.5272 13.8393 21.775 13.8393C22.0227 13.8393 22.2236 13.6384 22.2236 13.3907V10.6094C22.2236 10.3616 22.0227 10.1608 21.775 10.1608Z" fill="#2196F3"/>
<path d="M23.5514 10.1608C23.3036 10.1608 23.1028 10.3616 23.1028 10.6094V13.3907C23.1028 13.6384 23.3036 13.8393 23.5514 13.8393C23.7991 13.8393 24 13.6384 24 13.3907V10.6094C24 10.3616 23.7991 10.1608 23.5514 10.1608Z" fill="#2196F3"/>
</svg>
