<svg width="24" height="24" viewBox="0 0 24 24" fill="none" xmlns="http://www.w3.org/2000/svg">
<g clip-path="url(#clip0_1816_117299)">
<path d="M13.9472 0.878895C13.6688 0.746095 13.3408 0.781295 13.1008 0.974895L5.3184 7.2005H1.6C0.7184 7.2005 0 7.9189 0 8.8005V15.2005C0 16.0837 0.7184 16.8005 1.6 16.8005H5.3184L13.0992 23.0261C13.2448 23.1413 13.4224 23.2005 13.6 23.2005C13.7184 23.2005 13.8368 23.1733 13.9472 23.1205C14.224 22.9877 14.4 22.7077 14.4 22.4005V1.60049C14.4 1.29329 14.224 1.01329 13.9472 0.878895Z" fill="#2196F3"/>
<path d="M18.4497 6.34289C18.1345 6.03249 17.6289 6.03729 17.3185 6.34929C17.0081 6.66449 17.0113 7.17009 17.3249 7.48209C18.5345 8.67569 19.2001 10.2805 19.2001 12.0005C19.2001 13.7205 18.5345 15.3253 17.3249 16.5189C17.0113 16.8277 17.0081 17.3349 17.3185 17.6501C17.4753 17.8085 17.6817 17.8869 17.8865 17.8869C18.0897 17.8869 18.2929 17.8101 18.4497 17.6549C19.9665 16.1621 20.8001 14.1525 20.8001 12.0005C20.8001 9.84849 19.9665 7.83889 18.4497 6.34289Z" fill="#2196F3"/>
<path d="M20.7072 4.08841C20.392 3.77641 19.8864 3.77961 19.5744 4.09321C19.264 4.40681 19.2672 4.91401 19.5792 5.22441C21.3984 7.02761 22.4 9.43401 22.4 12.0004C22.4 14.5668 21.3984 16.9716 19.5792 18.7748C19.2672 19.0868 19.264 19.594 19.5744 19.9076C19.7328 20.0644 19.9376 20.1428 20.1424 20.1428C20.3456 20.1428 20.5504 20.066 20.7072 19.9108C22.832 17.8068 24 14.9972 24 12.0004C24 9.00361 22.832 6.19401 20.7072 4.08841Z" fill="#2196F3"/>
</g>
<defs>
<clipPath id="clip0_1816_117299">
<rect width="24" height="24" fill="white"/>
</clipPath>
</defs>
</svg>
