<svg width="24" height="24" viewBox="0 0 24 24" fill="none" xmlns="http://www.w3.org/2000/svg">
<g clip-path="url(#clip0_992_3340)">
<path d="M23.0625 10.7924V4.36868L17.4625 2.33217V10.7924H16.6625V1.19239H7.06249V10.7924H6.26249V5.55603H5.46249V2.50148H3.86249V-0.116699H3.06249V2.50148H1.46249V5.55603H0.662488V10.7924H-0.137512V23.0106H7.06249V23.8833H16.6625V23.0106H23.8625V10.7924H23.0625ZM2.26249 3.37421H4.66249V5.55603H2.26249V3.37421ZM1.46249 6.42876H5.46249V10.7924H1.46249V6.42876ZM7.06249 22.1378H0.662488V11.6651H7.06249V22.1378ZM12.6625 23.0106H11.0625V18.6469H12.6625V23.0106ZM15.8625 23.0106H13.4625V17.7742H10.2625V23.0106H7.86249V2.06512H15.8625V23.0106ZM18.2625 3.54352L22.2625 4.99792V10.7924H21.4625V5.55603H20.6625V10.7924H19.8625V5.55603H19.0625V10.7924H18.2625V3.54352ZM20.6625 22.1378H19.0625V20.3924H20.6625V22.1378ZM23.0625 22.1378H21.4625V19.5197H18.2625V22.1378H16.6625V11.6651H23.0625V22.1378Z" fill="#2196F3"/>
<path d="M6.26246 12.5364H1.46246V13.4091H6.26246V12.5364Z" fill="#2196F3"/>
<path d="M6.26246 14.2822H1.46246V15.155H6.26246V14.2822Z" fill="#2196F3"/>
<path d="M6.26246 16.0281H1.46246V16.9008H6.26246V16.0281Z" fill="#2196F3"/>
<path d="M6.26246 17.7728H1.46246V18.6455H6.26246V17.7728Z" fill="#2196F3"/>
<path d="M9.0625 3.81042V6.42861H11.4625V3.81042H9.0625ZM10.6625 5.55588H9.8625V4.68315H10.6625V5.55588Z" fill="#2196F3"/>
<path d="M12.2625 3.81042V6.42861H14.6625V3.81042H12.2625ZM13.8625 5.55588H13.0625V4.68315H13.8625V5.55588Z" fill="#2196F3"/>
<path d="M9.0625 7.30103V9.91921H11.4625V7.30103H9.0625ZM10.6625 9.04648H9.8625V8.17375H10.6625V9.04648Z" fill="#2196F3"/>
<path d="M12.2625 7.30103V9.91921H14.6625V7.30103H12.2625ZM13.8625 9.04648H13.0625V8.17375H13.8625V9.04648Z" fill="#2196F3"/>
<path d="M9.0625 10.7916V13.4098H11.4625V10.7916H9.0625ZM10.6625 12.5371H9.8625V11.6644H10.6625V12.5371Z" fill="#2196F3"/>
<path d="M12.2625 10.7916V13.4098H14.6625V10.7916H12.2625ZM13.8625 12.5371H13.0625V11.6644H13.8625V12.5371Z" fill="#2196F3"/>
<path d="M9.0625 14.2822V16.9004H11.4625V14.2822H9.0625ZM10.6625 16.0277H9.8625V15.155H10.6625V16.0277Z" fill="#2196F3"/>
<path d="M12.2625 14.2822V16.9004H14.6625V14.2822H12.2625ZM13.8625 16.0277H13.0625V15.155H13.8625V16.0277Z" fill="#2196F3"/>
<path d="M18.2625 12.5364H17.4625V13.4091H18.2625V12.5364Z" fill="#2196F3"/>
<path d="M20.6625 12.5364H19.0625V13.4091H20.6625V12.5364Z" fill="#2196F3"/>
<path d="M22.2625 12.5364H21.4625V13.4091H22.2625V12.5364Z" fill="#2196F3"/>
<path d="M18.2625 14.2822H17.4625V15.155H18.2625V14.2822Z" fill="#2196F3"/>
<path d="M20.6625 14.2822H19.0625V15.155H20.6625V14.2822Z" fill="#2196F3"/>
<path d="M22.2625 14.2822H21.4625V15.155H22.2625V14.2822Z" fill="#2196F3"/>
<path d="M18.2625 16.0281H17.4625V16.9008H18.2625V16.0281Z" fill="#2196F3"/>
<path d="M20.6625 16.0281H19.0625V16.9008H20.6625V16.0281Z" fill="#2196F3"/>
<path d="M22.2625 16.0281H21.4625V16.9008H22.2625V16.0281Z" fill="#2196F3"/>
<path d="M18.2625 17.7728H17.4625V18.6455H18.2625V17.7728Z" fill="#2196F3"/>
<path d="M20.6625 17.7728H19.0625V18.6455H20.6625V17.7728Z" fill="#2196F3"/>
<path d="M22.2625 17.7728H21.4625V18.6455H22.2625V17.7728Z" fill="#2196F3"/>
</g>
<defs>
<clipPath id="clip0_992_3340">
<rect width="24" height="24" fill="white"/>
</clipPath>
</defs>
</svg>
