<svg width="24" height="24" viewBox="0 0 24 24" fill="none" xmlns="http://www.w3.org/2000/svg">
<g clip-path="url(#clip0_992_3333)">
<path d="M18.0938 10.7804C18.6115 10.7804 19.0312 10.3607 19.0312 9.84289C19.0312 9.32513 18.6115 8.9054 18.0938 8.9054C17.576 8.9054 17.1562 9.32513 17.1562 9.84289C17.1562 10.3607 17.576 10.7804 18.0938 10.7804Z" fill="#2196F3"/>
<path d="M20.25 1.875H19.0312V0.9375C19.0312 0.419719 18.6115 0 18.0938 0C17.576 0 17.1562 0.419719 17.1562 0.9375V1.875H12.8906V0.9375C12.8906 0.419719 12.4709 0 11.9531 0C11.4353 0 11.0156 0.419719 11.0156 0.9375V1.875H6.79688V0.9375C6.79688 0.419719 6.37716 0 5.85938 0C5.34159 0 4.92188 0.419719 4.92188 0.9375V1.875H3.75C1.68225 1.875 0 3.55725 0 5.625V20.25C0 22.3177 1.68225 24 3.75 24H10.9219C11.4397 24 11.8594 23.5803 11.8594 23.0625C11.8594 22.5447 11.4397 22.125 10.9219 22.125H3.75C2.71613 22.125 1.875 21.2839 1.875 20.25V5.625C1.875 4.59113 2.71613 3.75 3.75 3.75H4.92188V4.6875C4.92188 5.20528 5.34159 5.625 5.85938 5.625C6.37716 5.625 6.79688 5.20528 6.79688 4.6875V3.75H11.0156V4.6875C11.0156 5.20528 11.4353 5.625 11.9531 5.625C12.4709 5.625 12.8906 5.20528 12.8906 4.6875V3.75H17.1562V4.6875C17.1562 5.20528 17.576 5.625 18.0938 5.625C18.6115 5.625 19.0312 5.20528 19.0312 4.6875V3.75H20.25C21.2839 3.75 22.125 4.59113 22.125 5.625V10.9688C22.125 11.4865 22.5447 11.9062 23.0625 11.9062C23.5803 11.9062 24 11.4865 24 10.9688V5.625C24 3.55725 22.3177 1.875 20.25 1.875Z" fill="#2196F3"/>
<path d="M18.3281 12.6562C15.2006 12.6562 12.6562 15.2011 12.6562 18.3292C12.6562 21.4573 15.2006 24.0022 18.3281 24.0022C21.4556 24.0022 24 21.4573 24 18.3292C24 15.2011 21.4556 12.6562 18.3281 12.6562ZM18.3281 22.1268C16.2345 22.1268 14.5312 20.4232 14.5312 18.3292C14.5312 16.2352 16.2345 14.5316 18.3281 14.5316C20.4217 14.5316 22.125 16.2352 22.125 18.3292C22.125 20.4232 20.4217 22.1268 18.3281 22.1268Z" fill="#2196F3"/>
<path d="M19.6927 17.391H19.2709V16.4066C19.2709 15.8888 18.8512 15.4691 18.3334 15.4691C17.8156 15.4691 17.3959 15.8888 17.3959 16.4066V18.3285C17.3959 18.8463 17.8156 19.266 18.3334 19.266H19.6927C20.2105 19.266 20.6302 18.8463 20.6302 18.3285C20.6302 17.8107 20.2105 17.391 19.6927 17.391Z" fill="#2196F3"/>
<path d="M14.0209 10.7804C14.5386 10.7804 14.9584 10.3607 14.9584 9.84289C14.9584 9.32513 14.5386 8.9054 14.0209 8.9054C13.5031 8.9054 13.0834 9.32513 13.0834 9.84289C13.0834 10.3607 13.5031 10.7804 14.0209 10.7804Z" fill="#2196F3"/>
<path d="M9.9375 14.8594C10.4553 14.8594 10.875 14.4396 10.875 13.9219C10.875 13.4041 10.4553 12.9844 9.9375 12.9844C9.41973 12.9844 9 13.4041 9 13.9219C9 14.4396 9.41973 14.8594 9.9375 14.8594Z" fill="#2196F3"/>
<path d="M5.85413 10.7804C6.37189 10.7804 6.79163 10.3607 6.79163 9.84289C6.79163 9.32513 6.37189 8.9054 5.85413 8.9054C5.33636 8.9054 4.91663 9.32513 4.91663 9.84289C4.91663 10.3607 5.33636 10.7804 5.85413 10.7804Z" fill="#2196F3"/>
<path d="M5.85413 14.8594C6.37189 14.8594 6.79163 14.4396 6.79163 13.9219C6.79163 13.4041 6.37189 12.9844 5.85413 12.9844C5.33636 12.9844 4.91663 13.4041 4.91663 13.9219C4.91663 14.4396 5.33636 14.8594 5.85413 14.8594Z" fill="#2196F3"/>
<path d="M5.85413 18.9381C6.37189 18.9381 6.79163 18.5184 6.79163 18.0006C6.79163 17.4828 6.37189 17.0631 5.85413 17.0631C5.33636 17.0631 4.91663 17.4828 4.91663 18.0006C4.91663 18.5184 5.33636 18.9381 5.85413 18.9381Z" fill="#2196F3"/>
<path d="M9.9375 18.9381C10.4553 18.9381 10.875 18.5184 10.875 18.0006C10.875 17.4828 10.4553 17.0631 9.9375 17.0631C9.41973 17.0631 9 17.4828 9 18.0006C9 18.5184 9.41973 18.9381 9.9375 18.9381Z" fill="#2196F3"/>
<path d="M9.9375 10.7804C10.4553 10.7804 10.875 10.3607 10.875 9.84289C10.875 9.32513 10.4553 8.9054 9.9375 8.9054C9.41973 8.9054 9 9.32513 9 9.84289C9 10.3607 9.41973 10.7804 9.9375 10.7804Z" fill="#2196F3"/>
</g>
<defs>
<clipPath id="clip0_992_3333">
<rect width="24" height="24" fill="white"/>
</clipPath>
</defs>
</svg>
