<svg width="24" height="24" viewBox="0 0 24 24" fill="none" xmlns="http://www.w3.org/2000/svg">
<g clip-path="url(#clip0_992_3354)">
<path d="M23.228 17.2752C23.1856 17.24 18.3944 13.8112 17.0944 14.036C16.4696 14.1464 16.112 14.572 15.396 15.4256C15.2808 15.5632 15.0032 15.892 14.7888 16.1264C14.3363 15.979 13.8949 15.7993 13.468 15.5888C11.2644 14.516 9.48399 12.7356 8.4112 10.532C8.20069 10.1051 8.02103 9.66374 7.8736 9.2112C8.1088 8.996 8.4384 8.7184 8.5792 8.6C9.428 7.888 9.8536 7.5304 9.964 6.9048C10.1904 5.6096 6.76 0.8144 6.7248 0.7712C6.56858 0.549645 6.36512 0.36554 6.1291 0.232173C5.89308 0.0988074 5.63039 0.0195081 5.36 0C3.9696 0 0 5.1488 0 6.0168C0 6.0672 0.0728001 11.1904 6.3904 17.6168C12.8096 23.9272 17.9328 24 17.9832 24C18.8512 24 24 20.0304 24 18.64C23.9805 18.3695 23.9011 18.1067 23.7676 17.8707C23.6341 17.6347 23.4498 17.4313 23.228 17.2752ZM17.8952 22.3952C17.196 22.3376 12.8968 21.7704 7.5216 16.4896C2.2136 11.0856 1.6608 6.7744 1.6056 6.1064C2.65422 4.46051 3.92063 2.96402 5.3704 1.6576C5.4024 1.6896 5.4448 1.7376 5.4992 1.8C6.61106 3.31778 7.56886 4.94262 8.3584 6.6504C8.10165 6.9087 7.83027 7.15203 7.5456 7.3792C7.10415 7.71556 6.69879 8.0968 6.336 8.5168L6.1416 8.7888L6.1992 9.1176C6.3685 9.85098 6.6278 10.5606 6.9712 11.2304C8.20151 13.7568 10.243 15.798 12.7696 17.028C13.4392 17.3719 14.1489 17.6315 14.8824 17.8008L15.2112 17.8584L15.4832 17.664C15.9048 17.2996 16.2876 16.8926 16.6256 16.4496C16.876 16.1504 17.2112 15.7512 17.3376 15.6384C19.0502 16.4272 20.6792 17.3861 22.2 18.5008C22.2664 18.5568 22.3128 18.6 22.344 18.628C21.0378 20.0782 19.5413 21.3449 17.8952 22.3936V22.3952Z" fill="white"/>
</g>
<defs>
<clipPath id="clip0_992_3354">
<rect width="24" height="24" fill="white"/>
</clipPath>
</defs>
</svg>
