<svg width="24" height="24" viewBox="0 0 24 24" fill="none" xmlns="http://www.w3.org/2000/svg">
<g clip-path="url(#clip0_992_3328)">
<path d="M12 24C18.6274 24 24 18.6274 24 12C24 5.37258 18.6274 0 12 0C5.37258 0 0 5.37258 0 12C0 18.6274 5.37258 24 12 24Z" fill="#2196F3"/>
<path fill-rule="evenodd" clip-rule="evenodd" d="M19.3324 16.4037L19.3196 16.4359C19.1988 16.7443 19.0775 17.0523 18.9502 17.3583C18.841 17.6212 18.7279 17.8852 18.603 18.1411C18.5283 18.2939 18.41 18.5353 18.29 18.6553C18.1679 18.7776 18.0329 18.8865 17.8875 18.98C17.0503 19.5158 16.0038 19.4403 15.0837 19.1936C11.1319 18.1349 5.8647 12.8677 4.80593 8.91594C4.55937 7.99565 4.48399 6.94883 5.02034 6.11165C5.11349 5.96629 5.22216 5.83149 5.34443 5.7096C5.46429 5.5896 5.70593 5.47138 5.8586 5.39671C6.11477 5.27179 6.37891 5.15872 6.64188 5.04946C6.94774 4.9229 7.25595 4.80102 7.56406 4.68008L7.59616 4.66771C7.75762 4.60377 7.93669 4.60011 8.10062 4.6574C8.26455 4.71468 8.40237 4.82908 8.48885 4.97966L10.0167 7.62651C10.1122 7.79317 10.1379 7.99084 10.0882 8.17639C10.0385 8.36194 9.91737 8.52029 9.75134 8.61688C9.21092 8.92912 8.77976 9.41484 8.6524 10.0377C8.58833 10.3344 8.58961 10.6414 8.65615 10.9375C8.72268 11.2336 8.85289 11.5117 9.03771 11.7524C9.49923 12.3549 10.0023 12.9244 10.5433 13.4566C11.0757 13.9977 11.6453 14.5009 12.2479 14.9624C12.4886 15.1474 12.7667 15.2776 13.0628 15.3442C13.359 15.4107 13.6661 15.412 13.9627 15.3478C14.585 15.2206 15.0713 14.7891 15.3833 14.2487C15.4798 14.0827 15.6381 13.9616 15.8237 13.9119C16.0092 13.8622 16.2068 13.8879 16.3734 13.9834L19.02 15.5115C19.1705 15.5979 19.285 15.7356 19.3423 15.8994C19.3997 16.0632 19.3962 16.2422 19.3324 16.4037Z" fill="white"/>
</g>
<defs>
<clipPath id="clip0_992_3328">
<rect width="24" height="24" fill="white"/>
</clipPath>
</defs>
</svg>
