<svg width="24" height="24" viewBox="0 0 24 24" fill="none" xmlns="http://www.w3.org/2000/svg">
<path fill-rule="evenodd" clip-rule="evenodd" d="M20.3984 6.00078C20.3984 5.68252 20.272 5.3773 20.047 5.15225C19.8219 4.92721 19.5167 4.80078 19.1984 4.80078H4.79844C4.4802 4.80078 4.17492 4.92721 3.94992 5.15225C3.72492 5.3773 3.59844 5.68252 3.59844 6.00078C3.59844 6.31905 3.72492 6.62427 3.94992 6.84931C4.17492 7.07435 4.4802 7.20078 4.79844 7.20078H19.1984C19.5167 7.20078 19.8219 7.07435 20.047 6.84931C20.272 6.62427 20.3984 6.31905 20.3984 6.00078ZM20.3984 12.0008C20.3984 11.6825 20.272 11.3773 20.047 11.1522C19.8219 10.9272 19.5167 10.8008 19.1984 10.8008H11.9984C11.6802 10.8008 11.3749 10.9272 11.1499 11.1522C10.9249 11.3773 10.7984 11.6825 10.7984 12.0008C10.7984 12.319 10.9249 12.6243 11.1499 12.8493C11.3749 13.0743 11.6802 13.2008 11.9984 13.2008H19.1984C19.5167 13.2008 19.8219 13.0743 20.047 12.8493C20.272 12.6243 20.3984 12.319 20.3984 12.0008ZM20.3984 18.0008C20.3984 17.6825 20.272 17.3773 20.047 17.1523C19.8219 16.9273 19.5167 16.8008 19.1984 16.8008H4.79844C4.4802 16.8008 4.17492 16.9273 3.94992 17.1523C3.72492 17.3773 3.59844 17.6825 3.59844 18.0008C3.59844 18.319 3.72492 18.6243 3.94992 18.8493C4.17492 19.0743 4.4802 19.2008 4.79844 19.2008H19.1984C19.5167 19.2008 19.8219 19.0743 20.047 18.8493C20.272 18.6243 20.3984 18.319 20.3984 18.0008Z" fill="#2196F3"/>
</svg>
