<svg width="24" height="24" viewBox="0 0 24 24" fill="none" xmlns="http://www.w3.org/2000/svg">
<g clip-path="url(#clip0_992_3336)">
<path d="M24 12C24 14.3687 23.2969 16.6721 21.9668 18.6616C21.7861 18.932 21.4891 19.0781 21.1866 19.0781C21.0075 19.0781 20.8264 19.027 20.6664 18.9199C20.2359 18.6323 20.1203 18.05 20.408 17.6195C21.5314 15.9395 22.125 13.9964 22.125 12C22.125 11.1422 22.0177 10.2902 21.806 9.46802C21.6769 8.96667 21.9789 8.45544 22.4802 8.32635C22.9819 8.19745 23.4928 8.49921 23.6219 9.00055C23.8727 9.9754 24 10.9845 24 12ZM17.2375 20.6669C15.6628 21.6207 13.8517 22.125 12 22.125C6.41711 22.125 1.875 17.5829 1.875 12C1.875 6.41711 6.41711 1.875 12 1.875C14.0671 1.875 16.0547 2.49353 17.7482 3.66376C18.1741 3.95801 18.758 3.85126 19.0525 3.42535C19.3467 2.99945 19.2402 2.41553 18.8141 2.12109C16.8058 0.733521 14.4496 0 12 0C8.79473 0 5.78118 1.24823 3.51471 3.51471C1.24823 5.78119 0 8.79474 0 12C0 15.2053 1.24823 18.2188 3.51471 20.4853C5.78118 22.7518 8.79473 24 12 24C14.1943 24 16.3414 23.402 18.2091 22.2706C18.652 22.0023 18.7936 21.4259 18.5253 20.983C18.2569 20.54 17.6805 20.3987 17.2375 20.6669ZM12.0904 14.7184C11.9419 14.7242 11.8033 14.6715 11.6957 14.569L6.7857 9.91351C6.40997 9.55719 5.81652 9.57294 5.46038 9.94867C5.10406 10.3244 5.11981 10.9178 5.49554 11.274L10.4046 15.9287C10.858 16.3597 11.4444 16.5938 12.0659 16.5938C12.0992 16.5938 12.1326 16.593 12.1659 16.5917C12.8241 16.5652 13.4288 16.2803 13.8682 15.7894C13.8794 15.7771 13.89 15.7645 13.9004 15.7515L23.7931 3.44678C24.1175 3.04321 24.0534 2.45306 23.6499 2.12878C23.2465 1.80432 22.6562 1.86841 22.3317 2.27197L12.4585 14.5527C12.3614 14.6539 12.2314 14.7127 12.0904 14.7184Z" fill="#2196F3"/>
</g>
<defs>
<clipPath id="clip0_992_3336">
<rect width="24" height="24" fill="white"/>
</clipPath>
</defs>
</svg>
