<svg width="24" height="24" viewBox="0 0 24 24" fill="none" xmlns="http://www.w3.org/2000/svg">
<g clip-path="url(#clip0_992_3355)">
<path d="M23.562 8.63723C23.0406 8.36737 22.2549 8.45198 21.7618 9.27557C21.7604 9.27792 21.759 9.28026 21.7577 9.28265L19.9361 12.4492C19.41 12.1785 18.7464 12.3119 18.369 12.7964C18.2386 12.9638 17.8078 13.5374 17.3518 14.1446C17.1018 14.4774 16.852 14.8102 16.659 15.066C16.5031 15.2727 16.5442 15.5666 16.7509 15.7225C16.9576 15.8785 17.2514 15.8373 17.4073 15.6306C17.6006 15.3744 17.8509 15.041 18.1013 14.7077C18.5348 14.1304 18.9831 13.5335 19.1084 13.3726C19.2154 13.2353 19.4207 13.2086 19.5569 13.3146C19.658 13.3932 19.6526 13.5858 19.5409 13.8869C19.1431 14.9585 18.6488 16.0293 18.1846 16.8249C18.0542 17.0485 18.1297 17.3355 18.3533 17.466C18.577 17.5964 18.8639 17.5209 18.9943 17.2973C19.4843 16.4572 20.0038 15.3331 20.4196 14.2132C20.5638 13.8246 20.59 13.5136 20.5479 13.2656L22.5679 9.75403C22.7312 9.48328 22.9468 9.37439 23.1312 9.46982C23.2578 9.53535 23.3651 9.70382 23.2516 9.963C23.1148 10.2652 22.8204 11.013 22.448 11.959C21.9551 13.2112 21.3418 14.7696 20.8233 15.9822C20.1918 17.4595 19.9486 17.8164 18.8213 18.9191L17.0248 20.6767C16.9062 20.7927 16.8577 20.9628 16.8974 21.1239L17.5232 23.6654C17.524 23.6685 17.5248 23.6716 17.5256 23.6747C17.5359 23.713 17.5139 23.7453 17.5025 23.7543H13.8392C13.4913 23.7543 13.4165 23.6551 13.3388 23.4444C12.4193 20.9539 13.3677 19.5244 14.2966 18.5573C14.4759 18.3706 14.4699 18.0739 14.2833 17.8945C14.0966 17.7152 13.8 17.7211 13.6206 17.9079C12.9361 18.6205 12.4833 19.3482 12.2398 20.1269C12.14 19.8094 12.0055 19.5 11.8357 19.1978C11.1986 18.0634 10.1631 17.2322 9.33106 16.5644C8.84722 16.176 8.39017 15.8092 8.13274 15.4787C8.00751 15.3179 7.55961 14.7214 7.12642 14.1447C6.67041 13.5374 6.23966 12.9639 6.10923 12.7965C5.73182 12.312 5.06828 12.1785 4.54206 12.4493L2.72051 9.28265C2.71915 9.28026 2.71774 9.27792 2.71634 9.27557C2.22325 8.45198 1.43754 8.36737 0.916149 8.63723C0.390635 8.90929 0.0342631 9.5827 0.369874 10.3434C0.37053 10.3448 0.371186 10.3463 0.371842 10.3477C0.462154 10.5469 0.643714 11.001 0.791812 11.3744C0.887279 11.6151 1.15981 11.7328 1.40028 11.6373C1.64089 11.5418 1.75857 11.2693 1.66311 11.0287C1.43543 10.4546 1.30472 10.1355 1.22664 9.96304C1.11318 9.70387 1.22041 9.5354 1.34704 9.46987C1.53155 9.37443 1.74709 9.48337 1.91037 9.75412L3.93032 13.2657C3.88823 13.5136 3.91443 13.8247 4.05868 14.2132C4.47439 15.3331 4.9939 16.4572 5.48394 17.2973C5.61442 17.5209 5.90138 17.5964 6.12493 17.466C6.34848 17.3355 6.42399 17.0485 6.29356 16.8249C5.82949 16.0293 5.33514 14.9584 4.93734 13.8869C4.82556 13.5858 4.82017 13.3933 4.9214 13.3146C5.05745 13.2088 5.26287 13.2353 5.36977 13.3726C5.49509 13.5335 5.94342 14.1304 6.37693 14.7077C6.83261 15.3144 7.26299 15.8874 7.39328 16.0547C7.71806 16.4717 8.21658 16.8719 8.74439 17.2955C10.4312 18.6494 12.343 20.1839 11.1394 23.4444C11.0616 23.655 10.9869 23.7543 10.6389 23.7543H6.97565C6.96422 23.7453 6.94228 23.713 6.95255 23.6746C6.95339 23.6716 6.95419 23.6685 6.95494 23.6654L7.58079 21.1239C7.62049 20.9628 7.57203 20.7927 7.45341 20.6766L5.65688 18.9191C4.5296 17.8163 4.28636 17.4595 3.65484 15.9821C3.52506 15.6787 3.37926 15.3294 3.22132 14.9442C3.12314 14.7047 2.84939 14.59 2.6099 14.6883C2.37041 14.7865 2.25587 15.0603 2.35406 15.2999C2.51598 15.6949 2.65958 16.0386 2.79296 16.3507C3.47403 17.9439 3.78362 18.3979 5.0015 19.5893L6.60662 21.1596L6.04573 23.4372C5.96662 23.7393 6.03289 24.0673 6.22349 24.3158C6.40674 24.5547 6.67856 24.6917 6.96923 24.6917H10.6389C11.3381 24.6917 11.7894 24.3899 12.0187 23.769C12.1054 23.5342 12.1787 23.3037 12.2395 23.0772C12.2999 23.3047 12.3732 23.5354 12.4594 23.769C12.6886 24.3899 13.14 24.6917 13.8392 24.6917H17.5088C17.7995 24.6917 18.0713 24.5547 18.2546 24.3158C18.4452 24.0674 18.5115 23.7395 18.4324 23.4374L17.8715 21.1596L19.4766 19.5893C20.6944 18.3979 21.0041 17.9439 21.6852 16.3507C22.2088 15.1256 22.825 13.5602 23.3201 12.3024C23.6742 11.4031 23.9798 10.6264 24.1063 10.3476C24.1069 10.3462 24.1075 10.3447 24.1082 10.3432C24.4439 9.5827 24.0875 8.90929 23.562 8.63723Z" fill="#2196F3"/>
<path d="M2.47031 13.1637C2.47031 12.9048 2.26048 12.6949 2.00164 12.6949H2.00131C1.74247 12.6949 1.53284 12.9048 1.53284 13.1637C1.53284 13.4226 1.7428 13.6324 2.00164 13.6324C2.26048 13.6324 2.47031 13.4225 2.47031 13.1637Z" fill="#2196F3"/>
<path d="M15.5458 16.3757C15.287 16.3757 15.0773 16.5856 15.0773 16.8445C15.0773 17.1034 15.2873 17.3132 15.5461 17.3132C15.805 17.3132 16.0148 17.1034 16.0148 16.8445C16.0148 16.5856 15.8049 16.3757 15.5461 16.3757H15.5458Z" fill="#2196F3"/>
<path d="M4.7414 8.45918H9.01483C8.97846 8.65549 8.95934 8.85701 8.95934 9.062V9.86553C8.95934 10.1244 9.16916 10.3343 9.428 10.3343H15.052C15.3108 10.3343 15.5206 10.1244 15.5206 9.86553V9.062C15.5206 8.85706 15.5015 8.65554 15.4651 8.45918H19.7386C19.9974 8.45918 20.2073 8.24932 20.2073 7.99043V7.1869C20.2073 6.09456 19.6735 5.09669 18.7882 4.48754C18.9249 4.21089 19.0021 3.89978 19.0021 3.57085V2.76732C19.0021 1.62267 18.0711 0.691406 16.9266 0.691406C15.7822 0.691406 14.8511 1.62263 14.8511 2.76732V3.5709C14.8511 3.90034 14.9286 4.21192 15.0657 4.4889C14.7774 4.68897 14.5247 4.93262 14.3155 5.20834V4.64237C14.3155 3.49773 13.3845 2.56646 12.24 2.56646C11.0955 2.56646 10.1645 3.49768 10.1645 4.64237V5.20844C9.9553 4.93267 9.70254 4.68897 9.41422 4.4889C9.55135 4.21192 9.62882 3.90039 9.62882 3.5709V2.76732C9.62882 1.62267 8.69777 0.691406 7.5533 0.691406C6.40882 0.691406 5.47777 1.62263 5.47777 2.76732V3.5709C5.47777 3.89982 5.555 4.21093 5.69171 4.48759C4.80636 5.09664 4.27264 6.09419 4.27264 7.18694V7.99048C4.27274 8.24932 4.48256 8.45918 4.7414 8.45918ZM14.5833 9.39678H9.89667V9.062C9.89667 8.26896 10.3135 7.52102 10.9768 7.09151C11.327 7.36104 11.7649 7.52182 12.24 7.52182C12.7153 7.52182 13.1535 7.36085 13.5037 7.09104C13.6049 7.15596 13.7 7.22796 13.7887 7.30587C13.8034 7.32077 13.8188 7.33488 13.8354 7.34772C14.0772 7.57169 14.2674 7.8423 14.3956 8.14217C14.4019 8.16077 14.4095 8.17877 14.4181 8.19626C14.5256 8.46654 14.5833 8.75918 14.5833 9.06195V9.39678H14.5833ZM19.27 7.18694V7.52173H15.1379C14.9984 7.25974 14.8233 7.01726 14.6167 6.80111C14.7262 6.15367 15.1091 5.57538 15.6641 5.21697C16.0142 5.48617 16.4519 5.64677 16.9266 5.64677C17.4019 5.64677 17.8401 5.4858 18.1903 5.21598C18.8621 5.64681 19.27 6.38107 19.27 7.18694ZM15.7884 2.76732C15.7884 2.13961 16.299 1.62891 16.9266 1.62891C17.5542 1.62891 18.0647 2.13961 18.0647 2.76732V3.5709C18.0647 4.19861 17.5541 4.70931 16.9266 4.70931C16.299 4.70931 15.7884 4.19861 15.7884 3.5709V2.76732ZM11.1018 4.64237C11.1018 4.01467 11.6124 3.50396 12.24 3.50396C12.8676 3.50396 13.3782 4.01467 13.3782 4.64237V5.44595C13.3782 6.07366 12.8676 6.58436 12.24 6.58436C11.6124 6.58436 11.1018 6.07366 11.1018 5.44595V4.64237ZM6.41519 2.76732C6.41519 2.13961 6.9258 1.62891 7.55339 1.62891C8.18098 1.62891 8.69159 2.13961 8.69159 2.76732V3.5709C8.69159 4.19861 8.18098 4.70931 7.55339 4.70931C6.9258 4.70931 6.41519 4.19861 6.41519 3.5709V2.76732ZM5.21007 7.18694C5.21007 6.38078 5.6179 5.64677 6.28968 5.21603C6.63996 5.48584 7.07812 5.64681 7.55339 5.64681C8.0281 5.64681 8.46579 5.48622 8.81588 5.21702C9.37078 5.57538 9.75377 6.15372 9.8633 6.80097C9.65662 7.01716 9.48148 7.25969 9.34195 7.52177H5.21011V7.18694H5.21007Z" fill="#2196F3"/>
</g>
<defs>
<clipPath id="clip0_992_3355">
<rect width="24" height="24" fill="white"/>
</clipPath>
</defs>
</svg>
