<svg width="32" height="24" viewBox="0 0 32 24" fill="none" xmlns="http://www.w3.org/2000/svg">
<path d="M26.6003 22.582H3.90138C2.86782 22.5785 1.87766 22.1897 1.14682 21.5006C0.415975 20.8114 0.00373804 19.8777 0 18.9031V5.52512C0.00373804 4.55049 0.415975 3.61679 1.14682 2.92762C1.87766 2.23845 2.86782 1.84972 3.90138 1.84619H26.6003C27.6339 1.84972 28.624 2.23845 29.3549 2.92762C30.0857 3.61679 30.4979 4.55049 30.5017 5.52512V18.9031C30.4979 19.8777 30.0857 20.8114 29.3549 21.5006C28.624 22.1897 27.6339 22.5785 26.6003 22.582ZM3.90138 3.85288C3.43105 3.85288 2.98 4.02906 2.64743 4.34267C2.31486 4.65627 2.12802 5.08162 2.12802 5.52512V18.9031C2.12802 19.3466 2.31486 19.7719 2.64743 20.0855C2.98 20.3991 3.43105 20.5753 3.90138 20.5753H26.6003C27.0706 20.5753 27.5217 20.3991 27.8542 20.0855C28.1868 19.7719 28.3737 19.3466 28.3737 18.9031V5.52512C28.3737 5.08162 28.1868 4.65627 27.8542 4.34267C27.5217 4.02906 27.0706 3.85288 26.6003 3.85288H3.90138Z" fill="#2196F3"/>
<path d="M15.2526 14.0195C14.4293 14.0195 13.6211 13.8117 12.9118 13.4175L0.526708 6.47439C0.295312 6.3384 0.127148 6.12479 0.0560748 5.87656C-0.014998 5.62834 0.016299 5.36394 0.143664 5.1366C0.285312 4.9156 0.512932 4.75553 0.777969 4.69055C1.04301 4.62557 1.32448 4.66082 1.56234 4.78878L13.9616 11.7185C14.3376 11.9348 14.7696 12.0492 15.21 12.0492C15.6505 12.0492 16.0824 11.9348 16.4585 11.7185L28.8577 4.78878C29.0956 4.66082 29.3771 4.62557 29.6421 4.69055C29.9071 4.75553 30.1348 4.9156 30.2764 5.1366C30.4038 5.36394 30.4351 5.62834 30.364 5.87656C30.2929 6.12479 30.1248 6.3384 29.8934 6.47439L17.5934 13.4175C16.8841 13.8117 16.0759 14.0195 15.2526 14.0195Z" fill="#2196F3"/>
</svg>
