<svg width="30" height="24" viewBox="0 0 30 24" fill="white" xmlns="http://www.w3.org/2000/svg">
<g clip-path="url(#clip0_992_3351)">
<path d="M14.6775 13.2859C13.8843 13.2859 13.1055 13.0829 12.4222 12.698L0.489361 5.91746C0.266415 5.78465 0.104392 5.57604 0.0359147 5.33363C-0.0325626 5.09122 -0.00240858 4.83301 0.120305 4.611C0.25678 4.39517 0.476088 4.23886 0.731447 4.1754C0.986805 4.11194 1.258 4.14636 1.48718 4.27132L13.4336 11.0388C13.7959 11.25 14.2121 11.3617 14.6365 11.3617C15.0609 11.3617 15.477 11.25 15.8393 11.0388L27.7858 4.27132C28.015 4.14636 28.2862 4.11194 28.5415 4.1754C28.7969 4.23886 29.0162 4.39517 29.1527 4.611C29.2754 4.83301 29.3055 5.09122 29.2371 5.33363C29.1686 5.57604 29.0066 5.78465 28.7836 5.91746L16.9328 12.698C16.2495 13.0829 15.4707 13.2859 14.6775 13.2859Z" fill="white"/>
<path d="M25.6289 21.9604H3.7589C2.76309 21.957 1.80909 21.5774 1.10493 20.9045C0.400784 20.2316 0.00360153 19.32 0 18.3683V5.3063C0.00360153 4.35468 0.400784 3.44302 1.10493 2.77013C1.80909 2.09723 2.76309 1.71768 3.7589 1.71423H25.6289C26.6247 1.71768 27.5787 2.09723 28.2828 2.77013C28.987 3.44302 29.3842 4.35468 29.3878 5.3063V18.3683C29.3842 19.32 28.987 20.2316 28.2828 20.9045C27.5787 21.5774 26.6247 21.957 25.6289 21.9604ZM3.7589 3.67354C3.30575 3.67354 2.87117 3.84556 2.55074 4.15176C2.23032 4.45797 2.05031 4.87326 2.05031 5.3063V18.3683C2.05031 18.8014 2.23032 19.2167 2.55074 19.5229C2.87117 19.8291 3.30575 20.0011 3.7589 20.0011H25.6289C26.082 20.0011 26.5166 19.8291 26.837 19.5229C27.1574 19.2167 27.3374 18.8014 27.3374 18.3683V5.3063C27.3374 4.87326 27.1574 4.45797 26.837 4.15176C26.5166 3.84556 26.082 3.67354 25.6289 3.67354H3.7589Z" fill="white"/>
</g>
<defs>
<clipPath id="clip0_992_3351">
<rect width="29.1429" height="24" fill="white"/>
</clipPath>
</defs>
</svg>
