<svg width="24" height="24" viewBox="0 0 24 24" fill="none" xmlns="http://www.w3.org/2000/svg">
<path d="M21.0742 8.98053C21.5769 8.40203 21.8823 7.64773 21.8823 6.82293C21.8823 5.00655 20.4046 3.52881 18.5882 3.52881C16.7719 3.52881 15.2941 5.00655 15.2941 6.82293C15.2941 7.77742 15.7025 8.63794 16.3534 9.2401C15.7472 9.56636 15.2154 10.0321 14.8096 10.6116L12 14.6242L9.19035 10.6116C8.78456 10.0321 8.25285 9.56636 7.64663 9.2401C8.29746 8.63794 8.70588 7.77737 8.70588 6.82293C8.70588 5.00655 7.22814 3.52881 5.41176 3.52881C3.59539 3.52881 2.11765 5.00655 2.11765 6.82293C2.11765 7.64773 2.42306 8.40203 2.92579 8.98053C1.21967 9.61074 0 11.2535 0 13.1759V18.8229C0 19.7311 0.738871 20.47 1.64706 20.47H8.23529C8.62513 20.47 8.94118 20.1539 8.94118 19.7641V17.6398L10.2652 19.5306C10.5896 19.994 11.0751 20.3033 11.6321 20.4015C12.1892 20.4997 12.7512 20.3751 13.2145 20.0506C13.4254 19.903 13.601 19.7235 13.7397 19.5232L13.7399 19.5234L15.0588 17.6398V19.7641C15.0588 20.1539 15.3749 20.47 15.7647 20.47H22.3529C23.2611 20.47 24 19.7311 24 18.8229V13.1759C24 11.2535 22.7803 9.61074 21.0742 8.98053ZM18.5882 4.94057C19.6262 4.94057 20.4706 5.785 20.4706 6.82293C20.4706 7.86086 19.6262 8.70528 18.5882 8.70528C17.5503 8.70528 16.7059 7.86086 16.7059 6.82293C16.7059 5.785 17.5503 4.94057 18.5882 4.94057ZM5.41176 4.94057C6.44969 4.94057 7.29412 5.785 7.29412 6.82293C7.29412 7.86086 6.44969 8.70528 5.41176 8.70528C4.37383 8.70528 3.52941 7.86086 3.52941 6.82293C3.52941 5.785 4.37383 4.94057 5.41176 4.94057ZM12.4048 18.8943C12.2503 19.0024 12.0629 19.0441 11.8773 19.0112C11.6916 18.9785 11.5298 18.8754 11.4216 18.721L8.81351 14.9962C8.6368 14.7438 8.3168 14.6352 8.02301 14.7279C7.72918 14.8205 7.52941 15.093 7.52941 15.4011V19.0582H1.64706C1.51732 19.0582 1.41176 18.9527 1.41176 18.8229V13.1759C1.41176 11.4892 2.78395 10.117 4.47059 10.117H5.52828C6.52536 10.117 7.46202 10.6047 8.03393 11.4214L12.5781 17.9112C12.8013 18.23 12.7236 18.671 12.4048 18.8943ZM22.5882 18.8229C22.5882 18.9527 22.4827 19.0582 22.3529 19.0582H16.4706V15.401C16.4706 15.093 16.2708 14.8205 15.977 14.7278C15.6832 14.6351 15.3632 14.7438 15.1865 14.9962L13.7234 17.0856L12.8617 15.8549L15.9661 11.4214C16.538 10.6047 17.4746 10.117 18.4717 10.117H19.5294C21.216 10.117 22.5882 11.4892 22.5882 13.1759V18.8229Z" fill="#2196F3"/>
</svg>
