<svg width="148" height="40" viewBox="0 0 148 40" fill="none" xmlns="http://www.w3.org/2000/svg">
<path fill-rule="evenodd" clip-rule="evenodd" d="M23.6931 36.5482L20.3836 38.4317C19.0534 39.0436 17.6062 38.9585 16.3398 38.2242L3.88931 31.0359C2.48463 30.2271 1.66524 28.8065 1.66524 27.1837V12.8123C1.66524 11.1895 2.48463 9.7742 3.88931 8.96013L16.3398 1.77181C17.7445 0.963054 19.3833 0.963054 20.788 1.77181L23.6718 3.4372C23.8421 2.27728 24.8424 1.38871 26.0449 1.38871H28.7478C30.0674 1.38871 31.1475 2.4635 31.1475 3.78837V7.75764C33.2758 8.98673 35.4626 9.85401 35.4626 12.8177V27.1943C35.4626 28.8171 34.6432 30.2324 33.2385 31.0465L23.6931 36.5482ZM28.0668 35.367L21.485 39.166H21.501C19.7079 40.278 17.4359 40.278 15.6375 39.166L3.30403 32.0468C1.53754 31.0252 0.5 29.2268 0.5 27.189V12.8123C0.5 10.7745 1.54286 8.97077 3.30403 7.95451L15.7546 0.766187C17.521 -0.255396 19.6015 -0.255396 21.3679 0.766187L23.1025 1.76648C24.422 -0.148982 26.4492 0.218149 28.7425 0.218149C30.7058 0.218149 32.3074 1.81437 32.3074 3.78305V7.07658L33.8185 7.94918C35.585 8.97077 36.6225 10.7692 36.6225 12.807V27.1837C36.6225 29.2215 35.5796 31.0252 33.8185 32.0415L28.0668 35.367Z" fill="#00296C"/>
<path d="M26.1245 19.9635V33.9357L26.9598 33.4569V19.9635C26.9598 19.7347 26.7736 19.5485 26.5448 19.5485C26.316 19.5431 26.1245 19.7347 26.1245 19.9635ZM30.0991 8.35894V3.78843C30.0991 3.04352 29.4925 2.43696 28.7476 2.43696H26.0447C25.2998 2.43696 24.6932 3.04352 24.6932 3.78843V5.24099L20.2663 2.68703C19.1862 2.06451 17.9465 2.06451 16.8664 2.68703L4.41585 9.87535C3.33574 10.4979 2.71321 11.5727 2.71321 12.8177V27.1944C2.71321 28.4447 3.33042 29.5142 4.41585 30.1367L8.95444 32.7599V28.8012V26.7261V22.8686V21.4107V19.9528C8.95444 19.6868 9.17259 19.4686 9.43863 19.4686H9.50248V18.3194V17.6968C8.99169 17.069 8.3532 16.8242 7.46995 17.3616C7.46995 17.5479 7.32097 17.6968 7.13475 17.6968H6.12913C5.9429 17.6968 5.79392 17.5479 5.79392 17.3616V14.4938C5.79392 14.3075 5.9429 14.1586 6.12913 14.1586H7.13475C7.32097 14.1586 7.46995 14.3075 7.46995 14.4938C8.12441 14.9939 8.77886 15.0312 9.42799 14.1586H9.49716H9.50248H9.51844H9.5344H9.55036H9.56632H9.58229H9.59825H9.61421H9.63017H9.64613H9.6621H9.67806H9.69402H9.70999H9.72595H9.74191H9.75787H9.77384H9.7898H9.80576H9.82172H9.83768H9.85364H9.86961H9.88557H9.90153H9.91749H9.93346H9.94942H9.96538H9.98134H9.99731H10.0133H10.0292H10.0505H10.0665H10.0824H10.0984H10.1144H10.1303H10.1463H10.1622H10.1782H10.1942H10.2101H10.2261H10.2421H10.258H10.274H10.2899H10.3059H10.3219H10.3378H10.3538H10.3698H10.3857H10.4017H10.4176H10.4336H10.4496H11.269H11.3701V14.1639C13.4558 14.2809 15.2702 15.361 15.9938 16.9307C15.9406 16.8668 15.8927 17.0424 15.8288 16.9892C15.217 16.4199 14.2486 15.9091 13.3121 16.0634C12.4076 16.2124 11.6733 16.7285 11.3647 17.4095V17.6968V18.3194V19.4686H11.4126C11.6787 19.4686 11.8968 19.6868 11.9021 19.9582V22.8686V26.7261V34.4625L16.8611 37.3251C16.9781 37.3942 17.0952 37.4528 17.2176 37.506V29.3918L16.4141 28.6735L15.0041 28.5458C14.4827 28.4979 14.057 28.1202 14.057 27.5987V26.6516H22.9107V27.5987C22.9107 28.1202 22.4798 28.5033 21.9636 28.5458L20.5537 28.6735L19.7502 29.3918V37.5698C19.9258 37.5006 20.0961 37.4208 20.261 37.3251L25.0656 34.5476V19.2931C24.2037 18.7876 23.6237 17.8884 23.6237 16.7764C23.6237 15.6643 24.2941 14.6268 25.2625 14.1532V16.9998L26.5395 17.931L27.8165 16.9998V14.1532C28.7848 14.6268 29.4553 15.6643 29.4553 16.7764C29.4553 17.8884 28.8753 18.7876 28.0133 19.2931V32.8397L32.7062 30.1314C33.7863 29.5089 34.4089 28.4341 34.4089 27.189V12.8124C34.4089 11.562 33.7917 10.4926 32.7062 9.87003L30.0991 8.35894ZM22.0435 20.5434H22.9161V26.2366H14.057V20.5434H15.2702L15.5575 23.0708L15.9246 20.5434H18.4041L18.6967 24.1296L19.0372 20.5434H20.2238L20.5962 22.0173L20.7239 20.5434H21.4901L21.6497 24.1296L22.0435 20.5434Z" fill="#2196F3"/>
<path d="M45.18 31V13.72H48.072V20.992H56.256V13.72H59.136V31H56.256V23.704H48.072V31H45.18ZM67.7443 31.36C66.4483 31.36 65.3163 31.068 64.3483 30.484C63.3803 29.9 62.6283 29.096 62.0923 28.072C61.5643 27.04 61.3003 25.856 61.3003 24.52C61.3003 23.16 61.5723 21.968 62.1163 20.944C62.6603 19.92 63.4163 19.12 64.3843 18.544C65.3523 17.968 66.4723 17.68 67.7443 17.68C69.0483 17.68 70.1843 17.972 71.1523 18.556C72.1203 19.14 72.8723 19.948 73.4083 20.98C73.9443 22.004 74.2123 23.184 74.2123 24.52C74.2123 25.864 73.9403 27.052 73.3963 28.084C72.8603 29.108 72.1083 29.912 71.1403 30.496C70.1723 31.072 69.0403 31.36 67.7443 31.36ZM67.7443 28.648C68.8963 28.648 69.7523 28.264 70.3123 27.496C70.8723 26.728 71.1523 25.736 71.1523 24.52C71.1523 23.264 70.8683 22.264 70.3003 21.52C69.7323 20.768 68.8803 20.392 67.7443 20.392C66.9683 20.392 66.3283 20.568 65.8243 20.92C65.3283 21.264 64.9603 21.748 64.7203 22.372C64.4803 22.988 64.3603 23.704 64.3603 24.52C64.3603 25.776 64.6443 26.78 65.2123 27.532C65.7883 28.276 66.6323 28.648 67.7443 28.648ZM81.2363 31.372C80.2763 31.372 79.4843 31.212 78.8603 30.892C78.2363 30.572 77.7403 30.164 77.3723 29.668C77.0043 29.172 76.7323 28.644 76.5563 28.084C76.3803 27.524 76.2643 26.996 76.2083 26.5C76.1603 25.996 76.1363 25.588 76.1363 25.276V18.04H79.0643V24.28C79.0643 24.68 79.0923 25.132 79.1483 25.636C79.2043 26.132 79.3323 26.612 79.5323 27.076C79.7403 27.532 80.0443 27.908 80.4443 28.204C80.8523 28.5 81.4003 28.648 82.0883 28.648C82.4563 28.648 82.8203 28.588 83.1803 28.468C83.5403 28.348 83.8643 28.144 84.1523 27.856C84.4483 27.56 84.6843 27.156 84.8603 26.644C85.0363 26.132 85.1243 25.484 85.1243 24.7L86.8403 25.432C86.8403 26.536 86.6243 27.536 86.1923 28.432C85.7683 29.328 85.1403 30.044 84.3083 30.58C83.4763 31.108 82.4523 31.372 81.2363 31.372ZM85.4723 31V26.98H85.1243V18.04H88.0283V31H85.4723ZM95.9237 31.36C94.3237 31.36 93.0237 31 92.0237 30.28C91.0237 29.56 90.4157 28.548 90.1997 27.244L93.1517 26.788C93.3037 27.428 93.6397 27.932 94.1597 28.3C94.6797 28.668 95.3357 28.852 96.1277 28.852C96.8237 28.852 97.3597 28.716 97.7357 28.444C98.1197 28.164 98.3117 27.784 98.3117 27.304C98.3117 27.008 98.2397 26.772 98.0957 26.596C97.9597 26.412 97.6557 26.236 97.1837 26.068C96.7117 25.9 95.9877 25.688 95.0117 25.432C93.9237 25.144 93.0597 24.836 92.4197 24.508C91.7797 24.172 91.3197 23.776 91.0397 23.32C90.7597 22.864 90.6197 22.312 90.6197 21.664C90.6197 20.856 90.8317 20.152 91.2557 19.552C91.6797 18.952 92.2717 18.492 93.0317 18.172C93.7917 17.844 94.6877 17.68 95.7197 17.68C96.7277 17.68 97.6197 17.836 98.3957 18.148C99.1797 18.46 99.8117 18.904 100.292 19.48C100.772 20.056 101.068 20.732 101.18 21.508L98.2277 22.036C98.1557 21.484 97.9037 21.048 97.4717 20.728C97.0477 20.408 96.4797 20.228 95.7677 20.188C95.0877 20.148 94.5397 20.252 94.1237 20.5C93.7077 20.74 93.4997 21.08 93.4997 21.52C93.4997 21.768 93.5837 21.98 93.7517 22.156C93.9197 22.332 94.2557 22.508 94.7597 22.684C95.2717 22.86 96.0317 23.076 97.0397 23.332C98.0717 23.596 98.8957 23.9 99.5117 24.244C100.136 24.58 100.584 24.984 100.856 25.456C101.136 25.928 101.276 26.5 101.276 27.172C101.276 28.476 100.8 29.5 99.8477 30.244C98.9037 30.988 97.5957 31.36 95.9237 31.36ZM109.316 31.36C108.004 31.36 106.852 31.076 105.86 30.508C104.868 29.94 104.092 29.152 103.532 28.144C102.98 27.136 102.704 25.976 102.704 24.664C102.704 23.248 102.976 22.02 103.52 20.98C104.064 19.932 104.82 19.12 105.788 18.544C106.756 17.968 107.876 17.68 109.148 17.68C110.492 17.68 111.632 17.996 112.568 18.628C113.512 19.252 114.212 20.136 114.668 21.28C115.124 22.424 115.296 23.772 115.184 25.324H112.316V24.268C112.308 22.86 112.06 21.832 111.572 21.184C111.084 20.536 110.316 20.212 109.268 20.212C108.084 20.212 107.204 20.58 106.628 21.316C106.052 22.044 105.764 23.112 105.764 24.52C105.764 25.832 106.052 26.848 106.628 27.568C107.204 28.288 108.044 28.648 109.148 28.648C109.86 28.648 110.472 28.492 110.984 28.18C111.504 27.86 111.904 27.4 112.184 26.8L115.04 27.664C114.544 28.832 113.776 29.74 112.736 30.388C111.704 31.036 110.564 31.36 109.316 31.36ZM104.852 25.324V23.14H113.768V25.324H104.852Z" fill="#00296C"/>
<path d="M117.382 31V13.72H127.786V16.612H120.274V20.92H126.346V23.8H120.274V31H117.382ZM129.704 16.072V13.42H132.596V16.072H129.704ZM129.704 31V18.04H132.596V31H129.704ZM134.271 31L139.011 24.448L134.367 18.04H137.775L140.691 22.18L143.559 18.04H146.967L142.323 24.448L147.087 31H143.679L140.691 26.716L137.679 31H134.271Z" fill="#2196F3"/>
</svg>
