<svg width="24" height="24" viewBox="0 0 24 24" fill="none" xmlns="http://www.w3.org/2000/svg">
<path fill-rule="evenodd" clip-rule="evenodd" d="M0 6.00005C0 5.68178 0.126432 5.37656 0.351468 5.15152C0.576516 4.92648 0.881736 4.80005 1.2 4.80005H15.6C15.9182 4.80005 16.2235 4.92648 16.4485 5.15152C16.6735 5.37656 16.8 5.68178 16.8 6.00005C16.8 6.31831 16.6735 6.62353 16.4485 6.84858C16.2235 7.07362 15.9182 7.20005 15.6 7.20005H1.2C0.881736 7.20005 0.576516 7.07362 0.351468 6.84858C0.126432 6.62353 0 6.31831 0 6.00005ZM0 12C0 11.6818 0.126432 11.3766 0.351468 11.1515C0.576516 10.9265 0.881736 10.8 1.2 10.8H8.4C8.71824 10.8 9.02352 10.9265 9.24852 11.1515C9.47352 11.3766 9.6 11.6818 9.6 12C9.6 12.3183 9.47352 12.6236 9.24852 12.8486C9.02352 13.0736 8.71824 13.2001 8.4 13.2001H1.2C0.881736 13.2001 0.576516 13.0736 0.351468 12.8486C0.126432 12.6236 0 12.3183 0 12ZM0 18.0001C0 17.6818 0.126432 17.3765 0.351468 17.1515C0.576516 16.9265 0.881736 16.8001 1.2 16.8001H15.6C15.9182 16.8001 16.2235 16.9265 16.4485 17.1515C16.6735 17.3765 16.8 17.6818 16.8 18.0001C16.8 18.3183 16.6735 18.6236 16.4485 18.8486C16.2235 19.0736 15.9182 19.2001 15.6 19.2001H1.2C0.881736 19.2001 0.576516 19.0736 0.351468 18.8486C0.126432 18.6236 0 18.3183 0 18.0001Z" fill="#2196F3"/>
</svg>
