<svg width="16" height="24" viewBox="0 0 16 24" fill="none" xmlns="http://www.w3.org/2000/svg">
<path d="M7.5 13.2172C9.56775 13.2172 11.25 11.5294 11.25 9.45477C11.25 7.38019 9.56775 5.69238 7.5 5.69238C5.43225 5.69238 3.75 7.38019 3.75 9.45477C3.75 11.5294 5.43225 13.2172 7.5 13.2172ZM7.5 6.94651C8.8785 6.94651 10 8.07172 10 9.45477C10 10.8378 8.8785 11.963 7.5 11.963C6.1215 11.963 5 10.8378 5 9.45477C5 8.07172 6.1215 6.94651 7.5 6.94651Z" fill="white"/>
<path d="M6.97996 22.4103C7.09588 22.5848 7.29104 22.6896 7.5 22.6896C7.70896 22.6896 7.90412 22.5848 8.02004 22.4103C9.49917 20.1844 11.6778 17.4353 13.196 14.6394C14.4099 12.4038 15 10.4972 15 8.81054C15 4.66138 11.6355 1.28577 7.5 1.28577C3.3645 1.28577 0 4.66138 0 8.81054C0 10.4972 0.590125 12.4038 1.80404 14.6394C3.32108 17.4331 5.50388 20.189 6.97996 22.4103ZM7.5 2.5399C10.9462 2.5399 13.75 5.35291 13.75 8.81054C13.75 10.2822 13.2097 11.9926 12.0983 14.0394C10.7897 16.4494 8.92225 18.894 7.5 20.9492C6.07796 18.8943 4.21042 16.4495 2.90171 14.0394C1.79029 11.9926 1.25 10.2822 1.25 8.81054C1.25 5.35291 4.05375 2.5399 7.5 2.5399Z" fill="white"/>
</svg>
