<svg width="19" height="24" viewBox="0 0 19 24" fill="none" xmlns="http://www.w3.org/2000/svg">
<g clip-path="url(#clip0_992_3329)">
<path d="M9.21059 5.28918C8.42988 5.28918 7.6667 5.5293 7.01756 5.97917C6.36843 6.42904 5.86249 7.06846 5.56372 7.81657C5.26495 8.56467 5.18678 9.38787 5.33909 10.1821C5.4914 10.9762 5.86735 11.7057 6.4194 12.2783C6.97144 12.8509 7.67479 13.2408 8.4405 13.3988C9.20621 13.5568 9.99989 13.4757 10.7212 13.1658C11.4425 12.8559 12.059 12.3312 12.4927 11.6579C12.9264 10.9846 13.1579 10.1931 13.1579 9.38333C13.1579 8.29749 12.7421 7.25613 12.0018 6.48833C11.2615 5.72053 10.2575 5.28918 9.21059 5.28918ZM9.21059 12.3077C8.65294 12.3077 8.10781 12.1362 7.64414 11.8149C7.18047 11.4935 6.81909 11.0368 6.60568 10.5024C6.39228 9.96808 6.33644 9.38008 6.44524 8.81281C6.55403 8.24553 6.82256 7.72446 7.21688 7.31547C7.6112 6.90649 8.11359 6.62797 8.66053 6.51513C9.20746 6.40229 9.77438 6.4602 10.2896 6.68154C10.8048 6.90288 11.2451 7.27771 11.5549 7.75862C11.8648 8.23954 12.0301 8.80494 12.0301 9.38333C12.0301 10.1589 11.7331 10.9028 11.2043 11.4512C10.6755 11.9996 9.95838 12.3077 9.21059 12.3077Z" fill="#2196F3"/>
<path d="M9.47367 0.09021C7.08075 0.09021 4.78584 1.07595 3.09379 2.83059C1.40174 4.58523 0.45116 6.96502 0.45116 9.44646C0.443734 11.7748 1.28113 14.0209 2.79701 15.7385L9.0451 23.2762C9.09804 23.3404 9.16376 23.3919 9.23774 23.4272C9.31172 23.4626 9.39221 23.4809 9.47367 23.4809C9.55512 23.4809 9.63561 23.4626 9.70959 23.4272C9.78358 23.3919 9.8493 23.3404 9.90224 23.2762L16.1503 15.7385C17.6662 14.0209 18.5036 11.7748 18.4962 9.44646C18.4962 6.96502 17.5456 4.58523 15.8535 2.83059C14.1615 1.07595 11.8666 0.09021 9.47367 0.09021ZM15.2932 14.9783L9.47367 22.0014L3.65415 14.9842C2.61877 13.8129 1.93443 12.3545 1.68461 10.7869C1.43479 9.21926 1.63029 7.6101 2.24725 6.15569C2.86421 4.70128 3.87597 3.46448 5.15915 2.59613C6.44232 1.72777 7.94144 1.2654 9.47367 1.2654C11.0059 1.2654 12.505 1.72777 13.7882 2.59613C15.0714 3.46448 16.0831 4.70128 16.7001 6.15569C17.3171 7.6101 17.5125 9.21926 17.2627 10.7869C17.0129 12.3545 16.3286 13.8129 15.2932 14.9842V14.9783Z" fill="#2196F3"/>
</g>
<defs>
<clipPath id="clip0_992_3329">
<rect width="18.9474" height="24" fill="white"/>
</clipPath>
</defs>
</svg>
