<svg width="24" height="24" viewBox="0 0 24 24" fill="none" xmlns="http://www.w3.org/2000/svg">
<g clip-path="url(#clip0_1828_120962)">
<path d="M0.703125 6.98635C0.309328 6.98635 0 7.29099 0 7.68478V16.1223C0 16.516 0.309328 16.8254 0.703125 16.8254H5.71875V6.98635H0.703125ZM15.1969 1.63791C14.9719 1.5113 14.6906 1.52536 14.4797 1.65188L7.125 6.39094V17.4301L14.4656 22.3379C14.7035 22.47 14.941 22.4939 15.1969 22.366C15.4219 22.2394 15.5625 22.0004 15.5625 21.7473V2.2426C15.5625 1.98947 15.4219 1.75036 15.1969 1.63791Z" fill="#2196F3"/>
<path d="M21.4787 11.9036L23.794 9.58819C24.0687 9.31354 24.0687 8.86856 23.794 8.59392C23.5194 8.31928 23.0744 8.31928 22.7998 8.59392L20.4844 10.9093L18.169 8.59392C17.8944 8.31928 17.4494 8.31928 17.1747 8.59392C16.9001 8.86856 16.9001 9.31354 17.1747 9.58819L19.4901 11.9036L17.1747 14.219C16.9001 14.4936 16.9001 14.9386 17.1747 15.2132C17.4494 15.4879 17.8943 15.4879 18.169 15.2132L20.4844 12.8978L22.7998 15.2132C23.0744 15.4879 23.5194 15.4879 23.794 15.2132C24.0687 14.9386 24.0687 14.4936 23.794 14.219L21.4787 11.9036Z" fill="#2196F3"/>
</g>
<defs>
<clipPath id="clip0_1828_120962">
<rect width="24" height="24" fill="white"/>
</clipPath>
</defs>
</svg>
