<svg width="24" height="24" viewBox="0 0 24 24" fill="none" xmlns="http://www.w3.org/2000/svg">
<path d="M9.77511 13.3318C11.0588 12.5959 11.0588 11.4022 9.77511 10.6675L2.32454 6.39462C1.041 5.65859 0 6.26156 0 7.74048V16.2586C0 17.7385 1.041 18.3408 2.32454 17.6054L9.77511 13.3318Z" fill="#2196F3"/>
<path d="M22.1839 18.7411C23.1869 18.7411 24 17.5415 24 16.0621V7.93777C24 6.45879 23.1869 5.25891 22.1839 5.25891C21.1816 5.25891 20.3692 6.4592 20.3692 7.93777V10.2834L13.5891 6.39467C12.3057 5.65864 11.2655 6.2616 11.2655 7.74046V16.2586C11.2655 17.7385 12.3057 18.3408 13.5891 17.6054L20.3692 13.717V16.0611C20.3693 17.5415 21.1821 18.7411 22.1839 18.7411Z" fill="#2196F3"/>
</svg>
