<svg width="40" height="40" viewBox="0 0 40 40" fill="none" xmlns="http://www.w3.org/2000/svg">
<rect width="40" height="40" fill="white"/>
<path d="M19.9584 11.4632C21.155 11.4632 22.125 10.4932 22.125 9.29668C22.125 8.10013 21.155 7.13013 19.9584 7.13013C18.7619 7.13013 17.7919 8.10013 17.7919 9.29668C17.7919 10.4932 18.7619 11.4632 19.9584 11.4632Z" fill="#2196F3"/>
<path d="M20.7132 12.4962C20.1733 12.3866 19.5864 12.3914 19.0561 12.5164C15.4542 12.9385 14.2846 17.1077 14.6149 20.2866C14.7581 21.6609 16.9247 21.6753 16.78 20.2866C16.6598 19.1281 16.7112 17.3797 17.327 16.1371C17.327 17.6475 17.327 19.1579 17.327 20.6678C17.327 20.7211 17.3323 20.7711 17.3347 20.8226C17.3333 20.8471 17.3275 20.8678 17.3275 20.8928C17.3275 24.488 17.3213 28.0818 17.1727 31.6741C17.1069 33.271 19.583 33.2648 19.6484 31.6741C19.7647 28.8586 19.794 26.0416 19.8008 23.2242C19.9181 23.2319 20.0354 23.2319 20.1526 23.2252C20.1599 26.0426 20.1882 28.8595 20.3036 31.6741C20.3694 33.2648 22.8456 33.271 22.7792 31.6741C22.6307 28.0818 22.6254 24.488 22.6254 20.8928C22.6254 20.7812 22.6105 20.6798 22.5879 20.5822C22.5845 19.0214 22.5249 17.4591 22.5432 15.8992C23.2806 17.1476 23.3479 19.0516 23.22 20.2856C23.0749 21.6734 25.2419 21.6595 25.3852 20.2856C25.7231 17.0408 24.4973 12.7635 20.7132 12.4962Z" fill="#2196F3"/>
</svg>
