<svg width="24" height="24" viewBox="0 0 24 24" fill="none" xmlns="http://www.w3.org/2000/svg">
<path d="M20.9824 16.2202C20.9485 16.192 17.1155 13.449 16.0755 13.6288C15.5757 13.7171 15.2896 14.0576 14.7168 14.7405C14.6247 14.8506 14.4026 15.1136 14.2311 15.3011C13.869 15.1832 13.5159 15.0395 13.1744 14.8711C11.4116 14.0128 9.98722 12.5885 9.12898 10.8256C8.96058 10.4841 8.81685 10.131 8.6989 9.76898C8.88706 9.59682 9.15074 9.37474 9.26338 9.28002C9.94242 8.71042 10.2829 8.42434 10.3712 7.92386C10.5523 6.8877 7.80802 3.05154 7.77986 3.01698C7.65489 2.83974 7.49212 2.69246 7.3033 2.58576C7.11448 2.47907 6.90434 2.41563 6.68802 2.40002C5.5757 2.40002 2.40002 6.51906 2.40002 7.21346C2.40002 7.25378 2.45826 11.3523 7.51234 16.4935C12.6477 21.5418 16.7463 21.6 16.7866 21.6C17.481 21.6 21.6 18.4243 21.6 17.312C21.5844 17.0956 21.5209 16.8854 21.4141 16.6966C21.3073 16.5078 21.1598 16.345 20.9824 16.2202ZM16.7162 20.3162C16.1568 20.2701 12.7175 19.8163 8.4173 15.5917C4.1709 11.2685 3.72866 7.81954 3.6845 7.28514C4.5234 5.96844 5.53653 4.77124 6.69634 3.7261C6.72194 3.7517 6.75586 3.7901 6.79938 3.84002C7.68887 5.05425 8.45511 6.35412 9.08674 7.72034C8.88134 7.92698 8.66424 8.12165 8.4365 8.30338C8.08335 8.57247 7.75905 8.87746 7.46882 9.21346L7.3133 9.43106L7.35938 9.6941C7.49483 10.2808 7.70226 10.8485 7.97698 11.3843C8.96123 13.4055 10.5944 15.0385 12.6157 16.0224C13.1514 16.2975 13.7192 16.5052 14.3059 16.6407L14.569 16.6867L14.7866 16.5312C15.1239 16.2397 15.4301 15.9141 15.7005 15.5597C15.9008 15.3203 16.169 15.001 16.2701 14.9107C17.6402 15.5417 18.9434 16.3089 20.16 17.2007C20.2131 17.2455 20.2503 17.28 20.2752 17.3024C19.2303 18.4626 18.033 19.476 16.7162 20.3149V20.3162Z" fill="#2196F3"/>
</svg>
