<svg width="24" height="24" viewBox="0 0 24 24" fill="none" xmlns="http://www.w3.org/2000/svg">
<g clip-path="url(#clip0_1828_120963)">
<path d="M20.4834 3.5166C15.7949 -1.17187 8.20576 -1.17253 3.51662 3.5166C-1.17186 8.20508 -1.17256 15.7942 3.51662 20.4833C8.2051 25.1718 15.7942 25.1725 20.4834 20.4833C25.1718 15.7949 25.1725 8.20578 20.4834 3.5166ZM10.9832 15.5037C10.9832 16.048 10.542 16.4892 9.9978 16.4892C9.45355 16.4892 9.01236 16.048 9.01236 15.5037V8.49621C9.01236 7.95196 9.45355 7.51077 9.9978 7.51077C10.542 7.51077 10.9832 7.95196 10.9832 8.49621V15.5037ZM14.9875 15.5037C14.9875 16.048 14.5463 16.4892 14.0021 16.4892C13.4579 16.4892 13.0167 16.048 13.0167 15.5037V8.49621C13.0167 7.95196 13.4579 7.51077 14.0021 7.51077C14.5463 7.51077 14.9875 7.95196 14.9875 8.49621V15.5037Z" fill="#2196F3"/>
</g>
<defs>
<clipPath id="clip0_1828_120963">
<rect width="24" height="24" fill="white"/>
</clipPath>
</defs>
</svg>
