<svg width="32" height="32" viewBox="0 0 32 32" fill="none" xmlns="http://www.w3.org/2000/svg">
<circle cx="16" cy="16" r="15.5" stroke="#2196F3" stroke-dasharray="2 2"/>
<path d="M16 3.84009C9.29453 3.84009 3.83997 9.29518 3.83997 16.0001C3.83997 22.705 9.29453 28.1601 16 28.1601C22.7054 28.1601 28.16 22.705 28.16 16.0001C28.16 9.29518 22.7054 3.84009 16 3.84009ZM20.8341 16.4261L13.7408 20.9861C13.6576 21.04 13.5616 21.0668 13.4666 21.0668C13.3835 21.0668 13.2994 21.046 13.2242 21.0049C13.0609 20.9159 12.96 20.7456 12.96 20.5601V11.4401C12.96 11.2546 13.0609 11.0843 13.2242 10.9953C13.3845 10.9072 13.5854 10.9126 13.7408 11.0141L20.8341 15.5741C20.9786 15.6671 21.0666 15.8279 21.0666 16.0001C21.0666 16.1723 20.9786 16.3331 20.8341 16.4261Z" fill="#2196F3"/>
</svg>
