<svg width="24" height="24" viewBox="0 0 24 24" fill="none" xmlns="http://www.w3.org/2000/svg">
<path d="M2 23H20C20.2652 23 20.5196 22.8946 20.7071 22.7071C20.8946 22.5196 21 22.2652 21 22V12C21 11.7348 20.8946 11.4804 20.7071 11.2929C20.5196 11.1054 20.2652 11 20 11C19.7348 11 19.4804 11.1054 19.2929 11.2929C19.1054 11.4804 19 11.7348 19 12V21H3V5H12C12.2652 5 12.5196 4.89464 12.7071 4.70711C12.8946 4.51957 13 4.26522 13 4C13 3.73478 12.8946 3.48043 12.7071 3.29289C12.5196 3.10536 12.2652 3 12 3H2C1.73478 3 1.48043 3.10536 1.29289 3.29289C1.10536 3.48043 1 3.73478 1 4V22C1 22.2652 1.10536 22.5196 1.29289 22.7071C1.48043 22.8946 1.73478 23 2 23Z" fill="#2196F3"/>
<path d="M11 9.33279V11.9998C11 12.265 11.1054 12.5194 11.2929 12.7069C11.4804 12.8944 11.7348 12.9998 12 12.9998H14.666C14.9312 12.9997 15.1855 12.8943 15.373 12.7068L22.707 5.37379C22.8 5.28091 22.8737 5.17063 22.9241 5.04923C22.9744 4.92783 23.0003 4.7977 23.0003 4.66629C23.0003 4.53487 22.9744 4.40475 22.9241 4.28335C22.8737 4.16195 22.8 4.05166 22.707 3.95879L20.04 1.29279C19.8525 1.10532 19.5982 1 19.333 1C19.0678 1 18.8135 1.10532 18.626 1.29279L11.293 8.62579C11.1055 8.81328 11.0001 9.06759 11 9.33279ZM13 9.74779L19.333 3.41379L20.586 4.66679L14.252 10.9998H13V9.74779Z" fill="#2196F3"/>
</svg>
