<svg width="24" height="24" viewBox="0 0 24 24" fill="none" xmlns="http://www.w3.org/2000/svg">
<g clip-path="url(#clip0_1828_120961)">
<path d="M14.2249 10.6682C12.9412 11.4041 12.9412 12.5978 14.2249 13.3325L21.6755 17.6054C22.959 18.3414 24 17.7384 24 16.2595L24 7.74136C24 6.2615 22.959 5.65918 21.6755 6.39462L14.2249 10.6682Z" fill="#2196F3"/>
<path d="M1.81607 5.25894C0.813086 5.25894 2.37218e-05 6.45853 2.38511e-05 7.93792L2.45613e-05 16.0622C2.46906e-05 17.5412 0.813087 18.7411 1.81607 18.7411C2.8184 18.7411 3.63076 17.5408 3.63076 16.0622L3.63076 13.7166L10.4109 17.6053C11.6943 18.3414 12.7345 17.7384 12.7345 16.2595L12.7345 7.74137C12.7345 6.26151 11.6943 5.65919 10.4109 6.39464L3.63076 10.283L3.63076 7.93886C3.6307 6.45853 2.81793 5.25894 1.81607 5.25894Z" fill="#2196F3"/>
</g>
<defs>
<clipPath id="clip0_1828_120961">
<rect width="24" height="24" fill="white" transform="translate(24 24) rotate(180)"/>
</clipPath>
</defs>
</svg>
