<svg width="24" height="24" viewBox="0 0 24 24" fill="none" xmlns="http://www.w3.org/2000/svg">
<path d="M19.2001 13.2C19.2001 12.52 18.4801 12 17.6001 12C16.7201 12 16.0001 12.52 16.0001 13.2V14.4L14.0401 13.56C14.5201 13.12 14.8401 12.56 15.0401 11.96L16.1201 11.4C16.5201 11.2 16.8001 10.8 16.8001 10.32V9.6C16.8001 8.92 16.2801 8.4 15.6001 8.4H15.4401L15.2001 8.64V7.6H16.0001V6.4C16.0001 3.92 14.3601 1.72 12.0001 1.04C11.9201 0.44 11.4001 0 10.8001 0H10.0001C9.40005 0 8.88005 0.44 8.80005 1.04C6.44005 1.72 4.80005 3.92 4.80005 6.4V7.6H5.60005V8.64L5.36005 8.4H5.20005C4.52005 8.4 4.00005 8.92 4.00005 9.6V10.32C4.00005 10.76 4.24005 11.2 4.68005 11.4L5.76005 11.96C5.96005 12.56 6.28005 13.12 6.76005 13.56L3.44005 15C1.84005 15.72 0.800049 17.28 0.800049 19.04V24H20.8001V12.36L19.2001 14.6V13.2ZM16.8001 17.92V14.24C17.3201 14.44 17.8801 14.44 18.4001 14.24V15.68L16.8001 17.92ZM17.6001 12.8C18.0801 12.8 18.4001 13.04 18.4001 13.2C18.4001 13.36 18.0801 13.6 17.6001 13.6C17.1201 13.6 16.8001 13.36 16.8001 13.2C16.8001 13.04 17.1201 12.8 17.6001 12.8ZM16.0001 16.28L13.4001 18.2C13.2001 18.32 12.9201 18.4 12.6801 18.4H11.3201L11.4401 17.92C11.4801 17.76 11.6401 17.6 11.8401 17.6H12.4001C13.0401 17.6 13.6401 17.28 14.0401 16.76L15.3201 14.96L16.0401 15.28V16.28H16.0001ZM10.6801 17.72L10.4001 18.76L10.1201 17.72C10.0001 17.16 9.52005 16.8 8.96005 16.8H8.40005C8.00005 16.8 7.64005 16.6 7.44005 16.28L6.24005 14.6L7.48005 14.04L8.64005 14.68C9.72005 15.28 11.0001 15.28 12.0801 14.68L13.2401 14.04L14.4801 14.6L13.2801 16.28C13.0401 16.6 12.6801 16.8 12.3201 16.8H11.7601C11.2801 16.8 10.8001 17.16 10.6801 17.72ZM9.48005 18.4H8.12005C7.88005 18.4 7.60005 18.32 7.40005 18.16L3.92005 15.64L5.48005 14.96L6.76005 16.76C7.12005 17.28 7.76005 17.6 8.40005 17.6H8.96005C9.16005 17.6 9.32005 17.72 9.36005 17.92L9.48005 18.4ZM15.7601 9.24C15.9201 9.28 16.0001 9.44 16.0001 9.6V10.32C16.0001 10.48 15.9201 10.6 15.7601 10.68L15.2001 10.96V10.92V9.8L15.7601 9.24ZM5.68005 6.8C5.84005 6.32 6.28005 6 6.80005 6H14.0001C14.5201 6 14.9601 6.32 15.1201 6.8H5.68005ZM8.80005 1.88V4.4H9.60005V1.2C9.60005 0.96 9.76005 0.8 10.0001 0.8H10.8001C11.0401 0.8 11.2001 0.96 11.2001 1.2V4.4H12.0001V1.88C13.6401 2.44 14.8401 3.84 15.1201 5.56C14.8001 5.32 14.4001 5.2 14.0001 5.2H6.80005C6.40005 5.2 6.00005 5.32 5.68005 5.56C5.96005 3.84 7.16005 2.44 8.80005 1.88ZM5.04005 10.68C4.92005 10.6 4.80005 10.48 4.80005 10.32V9.6C4.80005 9.44 4.92005 9.28 5.04005 9.24L5.60005 9.8V10.92V10.96L5.04005 10.68ZM6.40005 10.92V7.6H14.4001V10.92C14.4001 11.96 13.8401 12.88 12.9601 13.36L11.7601 14C10.9201 14.44 9.92005 14.44 9.08005 14L7.88005 13.36C6.96005 12.88 6.40005 11.92 6.40005 10.92ZM1.60005 19C1.60005 17.8 2.20005 16.72 3.16005 16.04L6.96005 18.8C7.32005 19.04 7.72005 19.2 8.12005 19.2H10.0001V23.2H8.80005V20H5.92005L5.60005 18.72L4.80005 18.88L5.08005 20H4.40005V23.2H1.60005V19ZM8.00005 20.8V21.6H5.20005V20.8H8.00005ZM5.20005 22.4H8.00005V23.2H5.20005V22.4ZM10.8001 23.2V19.2H12.6801C13.1201 19.2 13.5201 19.08 13.8401 18.8L16.0001 17.24V19L13.0001 23.2H10.8001ZM20.0001 14.84V23.2H14.0001L19.2001 16V15.96L20.0001 14.84Z" fill="#2196F3"/>
<path d="M19.2004 20.5327V15.656L15.6404 20.5327H19.2004ZM18.4004 19.7993H17.1604L18.4004 18.076V19.7993Z" fill="#2196F3"/>
</svg>
