<svg width="70" height="60" viewBox="0 0 70 60" fill="none" xmlns="http://www.w3.org/2000/svg">
<path d="M53.19 59.6473C57.5309 59.6425 61.6927 57.916 64.7622 54.8465C67.8317 51.777 69.5582 47.6152 69.563 43.2743C69.563 43.2473 69.563 43.2193 69.563 43.1923C69.563 43.1383 69.57 43.0573 69.576 42.9503C69.912 37.0043 68.94 20.9503 52.697 0.379246C52.5507 0.194493 52.3439 0.067336 52.113 0.0202057C51.8821 -0.0269247 51.642 0.00899966 51.435 0.121641C51.228 0.234283 51.0675 0.416405 50.9817 0.63588C50.8959 0.855356 50.8903 1.09808 50.966 1.32125C51.012 1.45725 55.451 14.7543 52.418 26.9213C48.1461 27.1217 44.1221 28.9857 41.2067 32.1146C38.2912 35.2435 36.7157 39.3889 36.8171 43.6644C36.9185 47.9398 38.6887 52.0059 41.7491 54.9931C44.8096 57.9803 48.9174 59.6515 53.194 59.6493L53.19 59.6473ZM67.563 43.3313C67.5519 46.1716 66.6996 48.9449 65.1136 51.3012C63.5275 53.6574 61.2789 55.4909 58.6516 56.5702C56.0244 57.6495 53.1362 57.9261 50.3518 57.3652C47.5674 56.8043 45.0116 55.431 43.0071 53.4187C41.0026 51.4064 39.6393 48.8453 39.0892 46.0588C38.5392 43.2722 38.8271 40.3852 39.9165 37.7621C41.006 35.139 42.8483 32.8976 45.2107 31.3207C47.5731 29.7438 50.3497 28.9023 53.19 28.9023C53.409 28.9022 53.6219 28.8303 53.7961 28.6975C53.9702 28.5647 54.096 28.3784 54.154 28.1673C56.454 19.7973 55.326 11.0172 54.183 5.68925C67.067 23.7373 67.876 37.5133 67.575 42.8383C67.5614 43.0022 67.5574 43.1668 67.563 43.3313Z" fill="#2196F3"/>
<path d="M16.3775 59.6473C20.7185 59.6425 24.8802 57.916 27.9497 54.8465C31.0192 51.777 32.7457 47.6152 32.7505 43.2743C32.7505 43.2473 32.7505 43.2193 32.7505 43.1923C32.7505 43.1383 32.7575 43.0573 32.7635 42.9503C33.0995 37.0043 32.1275 20.9502 15.8845 0.379246C15.7382 0.194493 15.5314 0.067336 15.3005 0.0202057C15.0696 -0.0269247 14.8295 0.00899966 14.6225 0.121641C14.4155 0.234283 14.255 0.416405 14.1692 0.63588C14.0834 0.855356 14.0778 1.09808 14.1535 1.32125C14.1995 1.45725 18.6385 14.7542 15.6055 26.9213C11.3336 27.1217 7.30962 28.9857 4.39418 32.1146C1.47874 35.2435 -0.0967484 39.3889 0.00462341 43.6644C0.105999 47.9398 1.87619 52.0059 4.93665 54.9931C7.9971 57.9803 12.1049 59.6515 16.3815 59.6493L16.3775 59.6473ZM30.7505 43.3313C30.7394 46.1716 29.8871 48.9449 28.3011 51.3012C26.715 53.6574 24.4664 55.4909 21.8391 56.5702C19.2119 57.6495 16.3237 57.9261 13.5393 57.3652C10.7549 56.8043 8.19916 55.431 6.19466 53.4187C4.19016 51.4064 2.82681 48.8453 2.27675 46.0588C1.72669 43.2722 2.01457 40.3852 3.10405 37.7621C4.19354 35.139 6.03577 32.8976 8.39817 31.3207C10.7606 29.7438 13.5372 28.9023 16.3775 28.9023C16.5965 28.9022 16.8094 28.8303 16.9836 28.6975C17.1577 28.5647 17.2835 28.3784 17.3415 28.1673C19.6415 19.7973 18.5135 11.0172 17.3705 5.68925C30.2545 23.7373 31.0645 37.5133 30.7635 42.8383C30.7496 43.0022 30.7453 43.1668 30.7505 43.3313Z" fill="#2196F3"/>
</svg>
