<svg width="24" height="24" viewBox="0 0 24 24" fill="none" xmlns="http://www.w3.org/2000/svg">
<path d="M20.4482 19.7432L16.5419 15.8368C17.7408 14.4696 18.4023 12.7397 18.4023 10.9043C18.4023 8.90088 17.6221 7.01758 16.2056 5.60107C14.7891 4.18457 12.9058 3.4043 10.9023 3.4043C8.89893 3.4043 7.01562 4.18457 5.59912 5.60107C4.18262 7.01758 3.40234 8.90088 3.40234 10.9043C3.40234 12.9077 4.18262 14.791 5.59912 16.2075C7.01562 17.624 8.89893 18.4043 10.9023 18.4043C12.7377 18.4043 14.4677 17.7428 15.8348 16.5438L19.7412 20.4502C19.8389 20.5479 19.9668 20.5967 20.0947 20.5967C20.2227 20.5967 20.3506 20.5479 20.4482 20.4502C20.6436 20.2549 20.6436 19.9385 20.4482 19.7432ZM6.30615 15.5005C5.07861 14.2727 4.40234 12.6404 4.40234 10.9043C4.40234 9.16821 5.07861 7.53589 6.30615 6.30811C7.53394 5.08057 9.16626 4.4043 10.9023 4.4043C12.6384 4.4043 14.2708 5.08057 15.4985 6.30811C16.7261 7.53589 17.4023 9.16821 17.4023 10.9043C17.4023 12.6404 16.7261 14.2727 15.4985 15.5005C14.2708 16.728 12.6384 17.4043 10.9023 17.4043C9.16626 17.4043 7.53394 16.728 6.30615 15.5005Z" fill="#2196F3"/>
</svg>
