<svg width="24" height="24" viewBox="0 0 24 24" fill="none" xmlns="http://www.w3.org/2000/svg">
<g clip-path="url(#clip0_992_3325)">
<path d="M12 0C9.62658 0 7.3065 0.703788 5.33311 2.02236C3.35972 3.34094 1.82164 5.21509 0.913391 7.4078C0.00513835 9.60051 -0.232502 12.0133 0.230521 14.3411C0.693544 16.6689 1.83643 18.8071 3.51467 20.4853C5.1929 22.1635 7.3311 23.3064 9.65887 23.7694C11.9866 24.2324 14.3994 23.9948 16.5922 23.0866C18.7849 22.1783 20.659 20.6402 21.9776 18.6668C23.2962 16.6935 24 14.3734 24 12C24 8.8174 22.7357 5.76516 20.4852 3.51472C18.2348 1.26428 15.1826 0 12 0V0ZM15.4136 7.80947C15.4136 8.03526 15.3189 8.12526 15.0979 8.12526C14.6731 8.12526 14.2484 8.12526 13.8252 8.14263C13.4021 8.16 13.1715 8.35263 13.1715 8.79474C13.1621 9.26842 13.1715 9.73263 13.1715 10.2158H14.9889C15.2479 10.2158 15.3363 10.3042 15.3363 10.5647C15.3363 11.1963 15.3363 11.8311 15.3363 12.4689C15.3363 12.7263 15.2542 12.8068 14.9936 12.8084H13.1557V17.9463C13.1557 18.2211 13.0705 18.3079 12.7989 18.3079H10.8221C10.5836 18.3079 10.4905 18.2147 10.4905 17.9763V12.8163H8.92101C8.67469 12.8163 8.58627 12.7263 8.58627 12.4784C8.58627 11.8395 8.58627 11.2011 8.58627 10.5632C8.58627 10.3168 8.67943 10.2237 8.92259 10.2237H10.4905V8.84211C10.4719 8.22151 10.6208 7.60737 10.9215 7.06421C11.2342 6.51585 11.7352 6.09957 12.3315 5.89263C12.7186 5.75181 13.1276 5.68123 13.5394 5.68421H15.0915C15.3142 5.68421 15.4073 5.78211 15.4073 6C15.4152 6.60789 15.4152 7.20947 15.4136 7.80947Z" fill="white"/>
</g>
<defs>
<clipPath id="clip0_992_3325">
<rect width="24" height="24" fill="white"/>
</clipPath>
</defs>
</svg>
