<svg width="24" height="24" viewBox="0 0 24 24" fill="none" xmlns="http://www.w3.org/2000/svg">
<g clip-path="url(#clip0_992_3327)">
<path d="M16.8177 8.50225L10.7318 13.4768L10.4454 13.7113C10.3825 13.7612 10.3414 13.8336 10.3309 13.9132L10.2668 14.4422L10.0909 15.9286C10.0925 15.9467 10.0869 15.9647 10.0752 15.9786C10.0636 15.9926 10.0469 16.0013 10.0288 16.0029C10.0107 16.0046 9.99275 15.9989 9.97882 15.9873C9.96488 15.9757 9.95613 15.959 9.95451 15.9409L9.45951 14.4545L8.94814 12.9341C8.92633 12.8659 8.92912 12.7923 8.95603 12.726C8.98295 12.6597 9.03227 12.605 9.09542 12.5713L15.4281 8.94134L16.62 8.25952C16.7931 8.15861 16.9704 8.37679 16.8177 8.50225Z" fill="#2196F3"/>
<path d="M12 0C9.62664 0 7.30656 0.703788 5.33317 2.02236C3.35978 3.34094 1.8217 5.21509 0.913452 7.4078C0.00519946 9.60051 -0.232441 12.0133 0.230582 14.3411C0.693605 16.6689 1.8365 18.8071 3.51473 20.4853C5.19296 22.1635 7.33116 23.3064 9.65893 23.7694C11.9867 24.2324 14.3995 23.9948 16.5922 23.0866C18.7849 22.1783 20.6591 20.6402 21.9777 18.6668C23.2962 16.6935 24 14.3734 24 12C24 8.8174 22.7357 5.76516 20.4853 3.51472C18.2349 1.26428 15.1826 0 12 0V0ZM19.485 6.94636L17.1423 17.2977C17.0318 17.7832 16.4155 18.0027 15.9832 17.7068L12.4459 15.3068L10.6446 17.01C10.5711 17.0789 10.4819 17.1289 10.3848 17.1555C10.2877 17.1822 10.1855 17.1848 10.0872 17.163C9.98882 17.1412 9.89726 17.0958 9.82045 17.0306C9.74364 16.9655 9.68389 16.8826 9.64638 16.7891L8.99592 14.88L8.34547 12.9709L4.85865 12.0164C4.76115 11.9951 4.67343 11.9422 4.6091 11.8659C4.54477 11.7896 4.50746 11.6942 4.50295 11.5945C4.49844 11.4948 4.52699 11.3964 4.58416 11.3147C4.64134 11.2329 4.72393 11.1723 4.8191 11.1423L18.2891 6.28909L18.5373 6.20045C19.0596 6.01773 19.5996 6.44045 19.485 6.94636Z" fill="#2196F3"/>
</g>
<defs>
<clipPath id="clip0_992_3327">
<rect width="24" height="24" fill="white"/>
</clipPath>
</defs>
</svg>
