<svg width="24" height="24" viewBox="0 0 24 24" fill="none" xmlns="http://www.w3.org/2000/svg">
<g clip-path="url(#clip0_992_3332)">
<path d="M12 0C5.3736 0 0 5.3736 0 12C0 18.6264 5.3736 24 12 24C18.6264 24 24 18.6264 24 12C24 5.3736 18.6264 0 12 0ZM12.2543 18.9868C12.2542 18.9868 12.2545 18.9868 12.2543 18.9868H12.2514C11.0493 18.9862 9.8681 18.6848 8.81909 18.1128L5.01178 19.1113L6.03076 15.3906C5.40216 14.3018 5.07147 13.0666 5.07202 11.8011C5.07367 7.84241 8.29559 4.62177 12.2543 4.62177C14.1755 4.6225 15.9789 5.3703 17.3348 6.72729C18.6909 8.08447 19.4372 9.88843 19.4365 11.8068C19.4348 15.7657 16.2125 18.9868 12.2543 18.9868Z" fill="white"/>
<path d="M12.2581 5.83521C8.96533 5.83521 6.28741 8.51202 6.28595 11.8024C6.28558 12.93 6.60126 14.0281 7.19873 14.9782L7.34064 15.204L6.73749 17.4062L8.99683 16.8137L9.21491 16.9429C10.1313 17.4868 11.182 17.7744 12.2532 17.7748H12.2556C15.5458 17.7748 18.2237 15.0978 18.2252 11.8072C18.2257 10.2125 17.6053 8.71326 16.4783 7.58533C15.3513 6.4574 13.8524 5.83575 12.2581 5.83521ZM15.7693 14.3681C15.6198 14.787 14.9029 15.1696 14.5581 15.2212C14.2488 15.2673 13.8577 15.2866 13.4278 15.1501C13.1671 15.0674 12.8329 14.957 12.4046 14.7722C10.6045 13.9951 9.42877 12.1831 9.33905 12.0634C9.24933 11.9436 8.60626 11.0905 8.60626 10.2074C8.60626 9.32446 9.06989 8.89032 9.23431 8.71088C9.39893 8.53125 9.59338 8.48639 9.71295 8.48639C9.83252 8.48639 9.95227 8.48749 10.0568 8.49261C10.1671 8.49811 10.315 8.45068 10.4606 8.8006C10.6102 9.15985 10.9691 10.0428 11.0139 10.1325C11.0588 10.2224 11.0886 10.3271 11.0289 10.4469C10.9691 10.5666 10.7702 10.825 10.5803 11.0605C10.5007 11.1592 10.3969 11.2471 10.5016 11.4267C10.6061 11.6061 10.9665 12.1937 11.4999 12.6694C12.1854 13.2806 12.7637 13.47 12.9431 13.5599C13.1224 13.6496 13.2271 13.6346 13.3318 13.515C13.4364 13.3953 13.7805 12.9911 13.9 12.8115C14.0196 12.6319 14.1393 12.6619 14.3038 12.7218C14.4684 12.7815 15.3506 13.2156 15.53 13.3054C15.7095 13.3953 15.829 13.4401 15.8739 13.515C15.9189 13.5899 15.9189 13.949 15.7693 14.3681Z" fill="white"/>
</g>
<defs>
<clipPath id="clip0_992_3332">
<rect width="24" height="24" fill="white"/>
</clipPath>
</defs>
</svg>
