<svg width="24" height="24" viewBox="0 0 24 24" fill="none" xmlns="http://www.w3.org/2000/svg">
<g clip-path="url(#clip0_992_3350)">
<path d="M14.5483 6.82092H9.45498C8.00431 6.82092 6.82031 7.99959 6.82031 9.45559V14.5489C6.82031 15.9996 7.99898 17.1836 9.45498 17.1836H14.5483C15.999 17.1836 17.183 16.0049 17.183 14.5489V9.45559C17.1776 7.99959 15.999 6.82092 14.5483 6.82092ZM11.999 15.4076C10.1216 15.4076 8.59098 13.8769 8.59098 11.9996C8.59098 10.1223 10.1216 8.59159 11.999 8.59159C13.8763 8.59159 15.407 10.1223 15.407 11.9996C15.407 13.8769 13.8763 15.4076 11.999 15.4076ZM15.5776 8.97026C15.2576 8.97026 15.0016 8.71426 15.0016 8.39426C15.0016 8.07426 15.2576 7.81826 15.5776 7.81826C15.8976 7.81826 16.1536 8.07426 16.1536 8.39426C16.1536 8.71426 15.8976 8.97026 15.5776 8.97026Z" fill="white"/>
<path d="M14.0729 12.0259C14.0866 10.883 13.1712 9.94541 12.0284 9.9317C10.8855 9.91799 9.94791 10.8333 9.93419 11.9762C9.92048 13.1191 10.8358 14.0566 11.9787 14.0704C13.1216 14.0841 14.0591 13.1687 14.0729 12.0259Z" fill="white"/>
<path d="M12 0C5.37067 0 0 5.37067 0 12C0 18.6293 5.37067 24 12 24C18.6293 24 24 18.6293 24 12C24 5.37067 18.6293 0 12 0ZM18.6667 14.5493C18.6667 16.8213 16.8213 18.6667 14.5493 18.6667H9.456C7.184 18.6667 5.33867 16.8213 5.33867 14.5493V9.456C5.33867 7.184 7.184 5.33867 9.456 5.33867H14.5493C16.8213 5.33867 18.6667 7.184 18.6667 9.456V14.5493Z" fill="white"/>
</g>
<defs>
<clipPath id="clip0_992_3350">
<rect width="24" height="24" fill="white"/>
</clipPath>
</defs>
</svg>
