<svg width="24" height="24" viewBox="0 0 24 24" fill="none" xmlns="http://www.w3.org/2000/svg">
<g clip-path="url(#clip0_992_3343)">
<path fill-rule="evenodd" clip-rule="evenodd" d="M14.4216 21.8071C14.4216 20.9776 13.7491 20.3052 12.9196 20.3052H11.0804C10.6821 20.3052 10.3 20.4634 10.0184 20.7451C9.73669 21.0267 9.57844 21.4088 9.57844 21.8071C9.57844 22.6366 10.2509 23.3091 11.0804 23.3091H12.9196C13.7491 23.3091 14.4216 22.6366 14.4216 21.8071ZM3.15755 17.9342C3.40842 17.9533 3.71194 17.9644 4.01681 17.9465C4.17923 18.7702 4.58273 19.5342 5.18503 20.1365C5.98462 20.936 7.06908 21.3852 8.19984 21.3852H8.77294C8.74767 21.5235 8.73469 21.6647 8.73469 21.8071C8.73469 21.9512 8.74767 22.0922 8.77256 22.229H8.19984C6.8453 22.229 5.5462 21.6909 4.58841 20.7331C3.8243 19.969 3.32728 18.9876 3.15755 17.9342ZM2.72836 17.0364C2.06222 16.9241 1.44234 16.6074 0.958453 16.1234C0.344766 15.5097 0 14.6774 0 13.8095V11.8153C0 10.9474 0.344766 10.115 0.958453 9.50136C1.57214 8.88767 2.4045 8.54286 3.27239 8.54286H3.49022C3.83841 4.14805 7.51538 0.689941 12 0.689941C16.4846 0.689941 20.1616 4.14805 20.5098 8.54286H20.7276C21.5955 8.54286 22.4279 8.88767 23.0415 9.50136C23.6552 10.115 24 10.9474 24 11.8153V13.8095C24 14.6774 23.6552 15.5097 23.0415 16.1234C22.4279 16.7372 21.5955 17.0819 20.7276 17.0819H19.7619C19.3614 17.0819 19.0368 16.7572 19.0368 16.3568V9.22672C19.0368 5.34041 15.8863 2.18994 12 2.18994C8.11369 2.18994 4.96322 5.34041 4.96322 9.22672V16.3568C4.96322 16.6395 4.80136 16.8845 4.5652 17.0041C3.91514 17.2297 2.907 17.0665 2.72836 17.0364Z" fill="#2196F3"/>
</g>
<defs>
<clipPath id="clip0_992_3343">
<rect width="24" height="24" fill="white"/>
</clipPath>
</defs>
</svg>
