<svg width="24" height="24" viewBox="0 0 24 24" fill="none" xmlns="http://www.w3.org/2000/svg">
<g clip-path="url(#clip0_1690_105369)">
<path d="M21.6133 3.32189V2.3887C21.6133 1.07156 20.5418 0 19.2246 0H12.5812C11.9431 0 11.3433 0.248484 10.8921 0.699703L1.49658 10.0953C1.04536 10.5465 0.796875 11.1463 0.796875 11.7844C0.796875 12.4224 1.04536 13.0223 1.49658 13.4735L2.45128 14.4282C2.41083 14.6037 2.38941 14.7848 2.38941 14.9693C2.38941 15.6074 2.63789 16.2073 3.08911 16.6584L9.73238 23.3016C10.198 23.7672 10.8098 24 11.4214 24C12.0331 24 12.6448 23.7672 13.1105 23.3015L22.5061 13.9058C22.9573 13.4546 23.2058 12.8548 23.2058 12.2167V5.57363C23.2058 4.53562 22.54 3.65058 21.6133 3.32189ZM2.62261 12.3474C2.47223 12.197 2.38936 11.997 2.38936 11.7843C2.38936 11.5716 2.47223 11.3717 2.62261 11.2213L12.0182 1.82569C12.1686 1.67536 12.3685 1.59248 12.5813 1.59248H19.2246C19.6636 1.59248 20.0208 1.94967 20.0208 2.3887V3.18492H14.1737C13.5356 3.18492 12.9358 3.43341 12.4846 3.88462L3.32231 13.047L2.62261 12.3474ZM21.3801 12.7798L11.9844 22.1754C11.6739 22.4859 11.1688 22.4858 10.8584 22.1754L4.21509 15.5323C4.06472 15.3819 3.98184 15.182 3.98184 14.9692C3.98184 14.7565 4.06472 14.5567 4.21509 14.4062L13.6107 5.01056C13.7611 4.86023 13.961 4.77736 14.1737 4.77736H20.817C21.2561 4.77736 21.6133 5.13455 21.6133 5.57358V12.2167H21.6133C21.6133 12.4294 21.5304 12.6294 21.3801 12.7798Z" fill="#2196F3"/>
<path d="M17.6348 6.36914C16.3177 6.36914 15.2461 7.4407 15.2461 8.75784C15.2461 10.075 16.3177 11.1465 17.6348 11.1465C18.9519 11.1465 20.0235 10.075 20.0235 8.75784C20.0235 7.4407 18.9519 6.36914 17.6348 6.36914ZM17.6348 9.55411C17.1958 9.55411 16.8386 9.19692 16.8386 8.75789C16.8386 8.31886 17.1958 7.96167 17.6348 7.96167C18.0738 7.96167 18.431 8.31886 18.431 8.75789C18.431 9.19692 18.0738 9.55411 17.6348 9.55411Z" fill="#2196F3"/>
</g>
<defs>
<clipPath id="clip0_1690_105369">
<rect width="24" height="24" fill="white"/>
</clipPath>
</defs>
</svg>
