<svg width="24" height="24" viewBox="0 0 24 24" fill="none" xmlns="http://www.w3.org/2000/svg">
<path d="M21.245 16.8407C21.7973 16.8407 22.245 16.393 22.245 15.8407C22.245 15.2884 21.7973 14.8407 21.245 14.8407C20.6927 14.8407 20.245 15.2884 20.245 15.8407C20.245 16.393 20.6927 16.8407 21.245 16.8407Z" fill="#2196F3"/>
<path d="M19.064 20.062C19.6162 20.062 20.064 19.6143 20.064 19.062C20.064 18.5097 19.6162 18.062 19.064 18.062C18.5117 18.062 18.064 18.5097 18.064 19.062C18.064 19.6143 18.5117 20.062 19.064 20.062Z" fill="#2196F3"/>
<path d="M21.9969 13.0039C22.5492 13.0039 22.9969 12.5562 22.9969 12.0039C22.9969 11.4516 22.5492 11.0039 21.9969 11.0039C21.4447 11.0039 20.9969 11.4516 20.9969 12.0039C20.9969 12.5562 21.4447 13.0039 21.9969 13.0039Z" fill="#2196F3"/>
<path d="M15.825 22.2469C16.3772 22.2469 16.825 21.7992 16.825 21.2469C16.825 20.6947 16.3772 20.2469 15.825 20.2469C15.2727 20.2469 14.825 20.6947 14.825 21.2469C14.825 21.7992 15.2727 22.2469 15.825 22.2469Z" fill="#2196F3"/>
<path d="M12 20.9999C10.5597 21.0016 9.14001 20.6577 7.86023 19.9969C6.58046 19.3362 5.47795 18.3779 4.64534 17.2027C3.81273 16.0275 3.27433 14.6696 3.07538 13.2431C2.87643 11.8166 3.02274 10.3632 3.50202 9.00501C3.98129 7.64681 4.77954 6.42346 5.82968 5.43776C6.87983 4.45206 8.15121 3.73279 9.537 3.34037C10.9228 2.94796 12.3825 2.89386 13.7936 3.18263C15.2046 3.47141 16.5257 4.09461 17.646 4.99988H16C15.7347 4.99988 15.4804 5.10524 15.2929 5.29277C15.1053 5.48031 15 5.73466 15 5.99988C15 6.2651 15.1053 6.51945 15.2929 6.70699C15.4804 6.89452 15.7347 6.99988 16 6.99988H20C20.2652 6.99988 20.5195 6.89452 20.7071 6.70699C20.8946 6.51945 21 6.2651 21 5.99988V1.99988C21 1.73466 20.8946 1.48031 20.7071 1.29277C20.5195 1.10523 20.2652 0.999878 20 0.999878C19.7347 0.999878 19.4804 1.10523 19.2929 1.29277C19.1053 1.48031 19 1.73466 19 1.99988V3.53088C17.6401 2.40662 16.0296 1.62615 14.3046 1.25538C12.5796 0.884607 10.7907 0.934431 9.08896 1.40064C7.38725 1.86685 5.82273 2.73575 4.52755 3.93395C3.23237 5.13216 2.24457 6.62446 1.64759 8.28482C1.05062 9.94518 0.861997 11.7248 1.09766 13.4734C1.33333 15.2221 1.98636 16.8883 3.0016 18.3313C4.01683 19.7744 5.36445 20.952 6.93063 21.7645C8.49681 22.5771 10.2355 23.0008 12 22.9999C12.2652 22.9999 12.5195 22.8945 12.7071 22.707C12.8946 22.5195 13 22.2651 13 21.9999C13 21.7347 12.8946 21.4803 12.7071 21.2928C12.5195 21.1052 12.2652 20.9999 12 20.9999Z" fill="#2196F3"/>
<path d="M15.707 15.7068C15.8945 15.5192 15.9998 15.2649 15.9998 14.9998C15.9998 14.7346 15.8945 14.4803 15.707 14.2928L13 11.5858V5.99976C13 5.73454 12.8946 5.48019 12.7071 5.29265C12.5196 5.10511 12.2652 4.99976 12 4.99976C11.7348 4.99976 11.4804 5.10511 11.2929 5.29265C11.1054 5.48019 11 5.73454 11 5.99976V11.9998C11.0001 12.265 11.1055 12.5193 11.293 12.7068L14.293 15.7068C14.4805 15.8942 14.7348 15.9995 15 15.9995C15.2652 15.9995 15.5195 15.8942 15.707 15.7068Z" fill="#2196F3"/>
</svg>
