<svg width="24" height="24" viewBox="0 0 24 24" fill="none" xmlns="http://www.w3.org/2000/svg">
<path d="M1.81758 12.2815C1.82227 12.2862 1.82695 12.2909 1.83164 12.2956L4.40976 14.7331C3.87539 15.5815 3.97383 16.7206 4.71445 17.4612C5.13633 17.8831 5.68476 18.094 6.2332 18.1034C6.25195 18.6659 6.47695 19.2237 6.9082 19.655C7.33476 20.0815 7.90195 20.3206 8.50664 20.33C8.51601 20.9112 8.74101 21.4831 9.18164 21.9284C10.0394 22.8237 11.5863 22.8237 12.4488 21.9284L13.8504 20.5269L14.1644 20.8409C15.0738 21.7503 16.5598 21.7503 17.4691 20.8409L17.4879 20.8222C17.9285 20.3815 18.1535 19.8097 18.1723 19.2284C18.7769 19.2331 19.3769 19.0034 19.8363 18.544L19.8551 18.5253C20.291 18.0894 20.5348 17.5128 20.5394 16.894C21.1301 16.8894 21.716 16.6597 22.166 16.2097L22.1848 16.1909C23.0941 15.2815 23.0941 13.7956 22.1848 12.8862L21.9457 12.6472L22.0676 12.5253C27.9129 6.17373 19.2223 -2.50753 12.8754 3.3331L11.6754 4.5331L10.6019 3.48779C8.17383 1.07372 4.23633 1.07372 1.81758 3.49247C-0.605859 5.91591 -0.605859 9.8581 1.81758 12.2815ZM21.1676 15.2159C20.8019 15.5815 20.2113 15.5815 19.8504 15.2159L18.5613 13.9269C18.2004 13.58 18.2004 12.9565 18.5613 12.6097L18.5801 12.5909C18.9269 12.23 19.5504 12.23 19.8973 12.5909L21.1863 13.88C21.5519 14.2456 21.5519 14.8362 21.1863 15.1972L21.1676 15.2159ZM17.516 17.5503L15.4066 15.4409C15.0457 15.094 15.0457 14.4706 15.4066 14.1237L15.4254 14.105C15.791 13.7394 16.3816 13.7394 16.7426 14.105L17.5582 14.9206L18.8473 16.2097C19.2082 16.5565 19.2082 17.18 18.8473 17.5268L18.8285 17.5456C18.4723 17.9112 17.8816 17.9112 17.516 17.5503ZM15.1488 19.8472L14.3144 19.0128C13.9535 18.6659 13.9535 18.0425 14.3144 17.6956L14.3332 17.6769C14.6988 17.3112 15.2894 17.3112 15.6504 17.6769L16.4848 18.5112C16.8504 18.8769 16.8504 19.4675 16.4848 19.8284L16.466 19.8472C16.1051 20.2081 15.5144 20.2081 15.1488 19.8472ZM5.7082 15.3472L10.5316 10.5237C10.5551 10.5003 10.5973 10.5003 10.6207 10.5237L11.3988 11.3019C12.3363 12.2815 14.0285 12.2815 14.966 11.3019C15.9551 10.355 15.941 8.63935 14.9379 7.70654L12.6832 5.51747L13.8691 4.33154C15.8566 2.34404 19.0863 2.34404 21.0738 4.33154C23.0613 6.31904 23.0613 9.54873 21.0738 11.5362L20.9519 11.6581L20.891 11.5972C20.0191 10.6925 18.4535 10.6925 17.5863 11.5972L17.5676 11.6159C17.2863 11.8972 17.0894 12.2347 16.9816 12.6003C16.1332 12.2534 15.1254 12.4222 14.441 13.1065L14.4223 13.1253C13.616 13.8987 13.5129 15.2487 14.1738 16.1393C13.8738 16.2519 13.5879 16.43 13.3441 16.6737L13.3254 16.6925C12.5988 17.3956 12.4301 18.5815 12.9223 19.4628L11.4551 20.93C11.1176 21.2815 10.5129 21.2815 10.1754 20.93C9.81914 20.5737 9.82382 19.9972 10.1801 19.6456L11.4832 18.3425C11.7598 18.0659 11.7598 17.6253 11.4832 17.3487C11.2066 17.0722 10.766 17.0722 10.4895 17.3487L9.18164 18.6565C8.84414 19.0081 8.23945 19.0081 7.90195 18.6565C7.55039 18.305 7.55039 17.7331 7.90195 17.3769L9.21914 16.0597C9.4957 15.7831 9.4957 15.3425 9.21914 15.0659C8.94258 14.7894 8.50195 14.7894 8.22539 15.0659C8.22539 15.0659 6.83789 16.4534 6.8332 16.4581C6.52383 16.7675 6.02226 16.7675 5.71289 16.4581C5.39883 16.1581 5.39883 15.6565 5.7082 15.3472ZM2.81133 4.49091C4.68633 2.61591 7.74258 2.61591 9.61758 4.50029L13.9582 8.71904C14.1738 8.92998 14.2957 9.21123 14.3004 9.51122C14.3098 10.5097 13.1004 11.0112 12.3926 10.3081L11.6144 9.52997C11.066 8.9581 10.0863 8.9581 9.53789 9.52997L5.36601 13.7018L2.80664 11.2784C0.936328 9.4081 0.936328 6.36122 2.81133 4.49091Z" fill="#2196F3"/>
</svg>
