<svg width="24" height="24" viewBox="0 0 24 24" fill="none" xmlns="http://www.w3.org/2000/svg">
<path d="M12.0072 19.4813C12.0072 19.9041 11.7629 20.2882 11.3806 20.4675C11.2328 20.5374 11.0744 20.5712 10.9171 20.5712C10.6679 20.5712 10.421 20.4856 10.2216 20.3202L4.26329 15.3829H1.08988C0.488059 15.3834 0 14.8951 0 14.2932V9.95102C0 9.34894 0.488059 8.86088 1.08988 8.86088H4.26355L10.2219 3.92355C10.5474 3.65372 10.9989 3.5962 11.3809 3.77677C11.7629 3.95605 12.0075 4.34041 12.0075 4.76295L12.0072 19.4813ZM16.1957 17.7783C16.1691 17.7801 16.1436 17.7811 16.1173 17.7811C15.8294 17.7811 15.5518 17.6674 15.3468 17.462L15.201 17.3158C14.8187 16.9342 14.7738 16.3298 15.0958 15.8959C15.9119 14.7955 16.3427 13.491 16.3427 12.1225C16.3427 10.6506 15.8537 9.27001 14.9281 8.12983C14.5757 7.69646 14.6082 7.06704 15.0032 6.67236L15.1486 6.52661C15.3664 6.30889 15.6581 6.19023 15.9739 6.20906C16.2813 6.22454 16.5685 6.36926 16.7635 6.60761C18.0473 8.17858 18.7255 10.0859 18.7255 12.1228C18.7255 14.0198 18.1258 15.8255 16.9907 17.3439C16.8011 17.5969 16.5112 17.7558 16.1957 17.7783ZM20.7017 21.1464C20.5047 21.3794 20.2196 21.5192 19.9144 21.5321C19.8995 21.5326 19.8843 21.5331 19.8688 21.5331C19.5801 21.5331 19.3031 21.4191 19.098 21.214L18.9548 21.0709C18.5547 20.671 18.5277 20.0315 18.8914 19.5987C20.6491 17.5082 21.6175 14.8533 21.6175 12.1225C21.6175 9.28213 20.5807 6.54776 18.6989 4.42321C18.3174 3.99191 18.3368 3.33901 18.7428 2.93144L18.8857 2.78827C19.0977 2.57519 19.3732 2.45782 19.6892 2.46788C19.9893 2.4764 20.273 2.60899 20.4724 2.83341C22.7471 5.39443 24 8.69373 24 12.1225C24.0005 15.4216 22.8291 18.6264 20.7017 21.1464Z" fill="#2196F3"/>
</svg>
